<?xml version="1.0" encoding="UTF-8" standalone="no"?>
<!-- Created with Inkscape (http://www.inkscape.org/) -->

<svg
   xmlns:dc="http://purl.org/dc/elements/1.1/"
   xmlns:cc="http://creativecommons.org/ns#"
   xmlns:rdf="http://www.w3.org/1999/02/22-rdf-syntax-ns#"
   xmlns:svg="http://www.w3.org/2000/svg"
   xmlns="http://www.w3.org/2000/svg"
   xmlns:sodipodi="http://sodipodi.sourceforge.net/DTD/sodipodi-0.dtd"
   xmlns:inkscape="http://www.inkscape.org/namespaces/inkscape"
   width="420mm"
   height="320mm"
   viewBox="0 0 1488.1889 1133.8582"
   id="svg2"
   version="1.1"
   inkscape:version="0.92.2 5c3e80d, 2017-08-06"
   sodipodi:docname="Diagram.svg"
   inkscape:export-filename="/Users/michakrz/Pictures/Plywood.png"
   inkscape:export-xdpi="199.9996"
   inkscape:export-ydpi="199.9996">
  <defs
     id="defs4" />
  <sodipodi:namedview
     id="base"
     pagecolor="#ffffff"
     bordercolor="#666666"
     borderopacity="1.0"
     inkscape:pageopacity="1"
     inkscape:pageshadow="2"
     inkscape:zoom="0.3"
     inkscape:cx="852.96337"
     inkscape:cy="386.1624"
     inkscape:document-units="mm"
     inkscape:current-layer="layer1"
     showgrid="false"
     inkscape:window-width="1267"
     inkscape:window-height="642"
     inkscape:window-x="150"
     inkscape:window-y="26"
     inkscape:window-maximized="0"
     inkscape:snap-bbox="true"
     inkscape:snap-bbox-midpoints="false"
     inkscape:snap-global="false"
     inkscape:bbox-paths="false"
     inkscape:bbox-nodes="true"
     inkscape:snap-bbox-edge-midpoints="false"
     inkscape:object-nodes="true"
     inkscape:snap-others="true"
     inkscape:snap-nodes="true"
     showguides="true"
     inkscape:snap-smooth-nodes="true"
     inkscape:snap-intersection-paths="true"
     inkscape:object-paths="true" />
  <metadata
     id="metadata7">
    <rdf:RDF>
      <cc:Work
         rdf:about="">
        <dc:format>image/svg+xml</dc:format>
        <dc:type
           rdf:resource="http://purl.org/dc/dcmitype/StillImage" />
        <dc:title></dc:title>
      </cc:Work>
    </rdf:RDF>
  </metadata>
  <g
     inkscape:label="Layer 1"
     inkscape:groupmode="layer"
     id="layer1"
     transform="translate(0,81.496059)">
    <path
       style="fill:none;fill-opacity:1;stroke:#000000;stroke-width:1.25;stroke-miterlimit:4;stroke-dasharray:none;stroke-opacity:1"
       d="m 1679.8593,173.65914 v 13.28906 h -67.8535 v 40.74805 h -13.2871 v 17.71485 h 13.2871 v 40.74804 h 67.8535 v 13.28906 h 17.7168 v -13.28906 h 67.8535 V 245.4111 h 13.2891 v -17.71485 h -13.2891 V 186.9482 h -67.8535 v -13.28906 z"
       id="rect3091"
       inkscape:connector-curvature="0" />
    <text
       xml:space="preserve"
       style="font-style:normal;font-weight:normal;line-height:0%;font-family:sans-serif;letter-spacing:0px;word-spacing:0px;fill:#000000;fill-opacity:1;stroke:none;stroke-width:0.93749994;stroke-miterlimit:4;stroke-dasharray:none;stroke-opacity:1"
       x="1629.3285"
       y="222.41792"
       id="text3181"><tspan
         sodipodi:role="line"
         id="tspan3179"
         x="1629.3285"
         y="222.41792"
         style="font-style:normal;font-variant:normal;font-weight:bold;font-stretch:normal;font-size:37.5px;line-height:1.25;font-family:Helvetica;-inkscape-font-specification:'Helvetica Bold';fill:#000000;stroke:none;stroke-width:0.93749994;stroke-miterlimit:4;stroke-dasharray:none;stroke-opacity:1">2mm </tspan><tspan
         sodipodi:role="line"
         x="1629.3285"
         y="269.29291"
         style="font-style:normal;font-variant:normal;font-weight:bold;font-stretch:normal;font-size:37.5px;line-height:1.25;font-family:Helvetica;-inkscape-font-specification:'Helvetica Bold';fill:#000000;stroke:none;stroke-width:0.93749994;stroke-miterlimit:4;stroke-dasharray:none;stroke-opacity:1"
         id="tspan5794">acrylic</tspan></text>
    <rect
       style="fill:none;fill-opacity:1;stroke:#000000;stroke-width:1.25;stroke-miterlimit:4;stroke-dasharray:none;stroke-opacity:1"
       id="rect3091-5"
       width="153.4252"
       height="99.212585"
       x="1597.4594"
       y="46.039742" />
    <text
       xml:space="preserve"
       style="font-style:normal;font-weight:normal;line-height:0%;font-family:sans-serif;letter-spacing:0px;word-spacing:0px;fill:#000000;fill-opacity:1;stroke:none;stroke-width:0.93749994;stroke-miterlimit:4;stroke-dasharray:none;stroke-opacity:1"
       x="1622.2433"
       y="101.96317"
       id="text3220"><tspan
         sodipodi:role="line"
         id="tspan3218"
         x="1622.2433"
         y="101.96317"
         style="font-style:normal;font-variant:normal;font-weight:bold;font-stretch:normal;font-size:37.5px;line-height:1.25;font-family:Helvetica;-inkscape-font-specification:'Helvetica Bold';fill:#000000;stroke:none;stroke-width:0.93749994;stroke-miterlimit:4;stroke-dasharray:none;stroke-opacity:1">paper</tspan></text>
    <text
       xml:space="preserve"
       style="font-style:normal;font-weight:normal;font-size:37.5px;line-height:1.25;font-family:sans-serif;letter-spacing:0px;word-spacing:0px;fill:#000000;fill-opacity:1;stroke:none;stroke-width:0.93749994"
       x="971.87506"
       y="-122.63779"
       id="text5669"><tspan
         sodipodi:role="line"
         id="tspan5667"
         x="971.87506"
         y="-89.459076"
         style="stroke-width:0.93749994"></tspan></text>
    <g
       id="g5988"
       transform="translate(-7.4999972,-5.8130303)"
       inkscape:export-filename="/Users/michakrz/Pictures/g5988.png"
       inkscape:export-xdpi="199.9996"
       inkscape:export-ydpi="199.9996">
      <path
         inkscape:connector-curvature="0"
         id="rect5754-4-0"
         d="m 223.37151,5.641112 h -17.71679 v 13.2871 h -17.7168 v -13.2871 h -17.7168 v 81.140597 h 7.08789 v 17.716801 h -7.08789 v 81.1426 h 17.7168 v -13.2871 h 17.7168 v 13.2871 h 17.71679 V 102.28372 H 210.0844 V 88.996619 h 13.28711 z"
         style="opacity:1;fill:#ffdd55;fill-opacity:1;stroke:#000000;stroke-width:1.25;stroke-linecap:butt;stroke-linejoin:miter;stroke-miterlimit:4;stroke-dasharray:none;stroke-dashoffset:0;stroke-opacity:1" />
      <path
         inkscape:connector-curvature="0"
         id="rect5754-0-4"
         d="m 111.99243,-2.714725 v 13.28796 H 94.276981 v 99.212035 h 17.715449 v 13.28797 h 17.71729 v -13.28797 h 17.71545 V 69.036989 h -7.08618 V 51.321535 h 7.08618 v -40.7483 h -17.71545 v -13.28796 z"
         style="opacity:1;fill:#ffdd55;fill-opacity:1;stroke:#000000;stroke-width:1.25;stroke-linecap:butt;stroke-linejoin:miter;stroke-miterlimit:4;stroke-dasharray:none;stroke-dashoffset:0;stroke-opacity:1" />
      <circle
         r="67.747108"
         cy="44.810482"
         cx="91.136726"
         id="path5468"
         style="fill:#aaccff;fill-opacity:0.51340996;stroke:none;stroke-width:1.24297154;stroke-miterlimit:4;stroke-dasharray:none;stroke-dashoffset:0;stroke-opacity:1" />
      <path
         inkscape:connector-curvature="0"
         id="path4322-6-0-7-9-7"
         d="m 1478.4293,146.4285 h -78.0938 V 261.491 h -13.2871 v -17.7168 h -301.1817 v 17.7168 h -13.2871 v -31.8906 h -14.1699 c -23.5999,0 -67.92192,32.6246 -77.67582,48.0234 -48.32545,76.2925 -20.27935,136.6835 18.9336,186.502 97.23442,84.0847 186.32212,3.5929 221.50392,-42.8203 18.6652,-24.6239 56.11,-31.6354 82.3223,-2.4199 11.0794,12.3489 10.5673,45.2929 -8.25,51.3691 -12.4939,4.0342 -24.1522,-1.4439 -25.1406,-16.1914 7.9611,-7.3032 15.4823,9.1663 14.7832,-10.9043 -6.4636,-11.9632 -19.5331,-14.0979 -28.2793,-5.0508 -23.3311,24.1335 5.7552,47.3867 15.3984,53.6231 54.5538,35.2808 120.3402,-40.0823 97.5996,-103.334 -7.8991,-21.9716 -26.4787,-42.4836 -59.9238,-56.3867 -32.7442,-12.1385 -69.5728,-2.3161 -94.6367,19.3789 -47.3166,42.4127 -44.3065,60.6044 -85.0293,71.4804 -20.7027,5.5292 -40.7291,-2.7692 -53.5606,-19.0117 -8.3043,-2.8138 -26.1996,-9.5643 -29.7031,-16.6055 -2.7381,-5.5027 -7.7036,-18.7289 -0.5,-21.5 5.213,5.0801 10.2102,11.5934 17.9883,12.4629 -6.3121,-26.8085 2.1772,-61.4854 37.1133,-93.58 26.6177,-22.6056 64.5841,-25.9745 95.5566,-14.1602 77.5652,31.1367 177.6941,94.286 243.3575,4.5977 22.848,-36.2729 35.8522,-85.5515 38.1621,-128.6446 z m -368.9747,331.2559 c 0,3.4352 -2.7659,6.2012 -6.2012,6.2012 h -17.7168 c -3.4352,0 -6.1992,-2.766 -6.1992,-6.2012 0,-3.4352 2.764,-6.2012 6.1992,-6.2012 h 17.7168 c 3.4353,0 6.2012,2.766 6.2012,6.2012 z m -56.6933,-67.3223 c 0,3.4353 -2.766,6.1992 -6.2012,6.1992 h -17.7149 c -3.4352,0 -6.2011,-2.7639 -6.2011,-6.1992 0,-3.4352 2.7659,-6.2011 6.2011,-6.2011 h 17.7149 c 3.4352,0 6.2012,2.7659 6.2012,6.2011 z"
         style="fill:#ffdd55;fill-opacity:1;stroke:#000000;stroke-width:1.25;stroke-linecap:butt;stroke-linejoin:miter;stroke-miterlimit:4;stroke-dasharray:none;stroke-opacity:1" />
      <path
         inkscape:connector-curvature="0"
         id="rect1833-0"
         d="m 824.34611,994.32273 h -99.21286 v -13.2871 h 14.1738 v -15.0605 h 40.37696 11 v -46.9473 h -11 v -16.832 h 11 V 855.2465 h -11 v -14.6152 h 23.4023 V 783.938 h -23.4023 -40.37696 v -15.0586 h -14.1738 v -13.2871 h 99.21286 z"
         style="fill:#ffdd55;fill-opacity:1;stroke:#000000;stroke-width:1.25;stroke-miterlimit:4;stroke-dasharray:none;stroke-opacity:1" />
      <path
         inkscape:connector-curvature="0"
         id="path4324-9-2"
         d="m 889.8081,427.02292 v 28.1172 H 876.519 v -27.9941 a 159.44882,159.44882 0 0 0 -101.0664,41.9883 l 19.7051,19.707 -9.3946,9.3945 -19.7246,-19.7226 a 159.44882,159.44882 0 0 0 -13.9765,17.2851 v 83.7988 13.2891 h -27.9981 a 159.44882,159.44882 0 0 0 41.9375,101.1211 l 19.7617,-19.7598 9.3946,9.3946 -19.7832,19.78512 a 159.44882,159.44882 0 0 0 101.1445,42.0274 v -28.1114 h 13.2891 v 27.9981 a 159.44882,159.44882 0 0 0 101.1211,-41.9375 l -19.7598,-19.76172 9.3945,-9.3946 19.7852,19.7832 a 159.44882,159.44882 0 0 0 42.0273,-101.1445 h -28.1113 v -13.2891 -83.7988 a 159.44882,159.44882 0 0 0 -14.0098,-17.2519 l -19.6914,19.6894 -9.3945,-9.3945 19.7266,-19.7285 a 159.44882,159.44882 0 0 0 -101.0879,-42.0899 z m -29.6758,74.6231 h 46.0625 v 35.4316 h -46.0625 z m 16.3867,49.6054 h 13.2891 v 28.3457 H 876.519 Z"
         style="opacity:1;fill:#ffdd55;fill-opacity:1;stroke:#000000;stroke-width:1.25;stroke-linecap:butt;stroke-linejoin:miter;stroke-miterlimit:4;stroke-dasharray:none;stroke-dashoffset:0;stroke-opacity:1" />
      <path
         inkscape:connector-curvature="0"
         id="path4322-6-7"
         d="m 440.13418,-24.545414 c -45.17332,0.784643 -99.1022,13.971626 -138.04293,38.5 -89.6883,65.663413 -26.53904,165.792284 4.59766,243.357424 11.8143,30.97251 8.44544,68.93693 -14.16016,95.55469 -31.7982,34.61339 -65.48887,41.89776 -93.63476,34.29101 -0.59261,9.4414 6.84991,14.99047 12.51758,20.80664 -2.7711,7.20359 -15.9972,2.23811 -21.5,-0.5 -8.18164,-4.07105 -15.98046,-27.57959 -17.64258,-32.85156 -38.67373,-26.91139 -55.40954,-82.67464 -16.94336,-111.77539 9.1585,-6.92867 40.95785,-26.30907 55.65625,3.86914 5.5101,11.31308 -0.96557,22.86557 -14.41797,24.84766 -19.0993,-6.20761 -1.05161,-7.64224 -5.19141,-17.6211 -14.1962,-4.11518 -23.3303,4.96773 -23.8125,18.08789 -0.7262,19.76059 30.05572,31.50803 45.44922,25.32032 36.4188,-14.63917 39.76972,-50.58339 25.88282,-78.18555 -42.6182,-62.01972 -119.36573,-27.24981 -151.611332,53.44922 -20.445699,55.34224 -16.67989,127.24759 25.757812,161.94726 49.8185,39.21304 110.20945,67.26097 186.50195,18.93555 15.3988,-9.75395 48.02344,-54.07586 48.02344,-77.67578 v -14.17383 h -31.88867 v -13.28711 h 131.10154 131.1035 v 13.28711 h -31.8906 v 14.17383 c 0,23.59992 32.6266,67.92183 48.0254,77.67578 76.2925,48.32542 136.6815,20.27749 186.5,-18.93555 42.4377,-34.69967 46.2054,-106.60502 25.7597,-161.94726 -32.2456,-80.69903 -108.9951,-115.46894 -151.6133,-53.44922 -13.8869,27.60216 -10.5359,63.54638 25.8829,78.18555 15.3935,6.18771 46.1754,-5.55973 45.4492,-25.32032 -0.4822,-13.12016 -9.6163,-22.20307 -23.8125,-18.08789 -4.1398,9.97886 13.9079,11.41349 -5.1914,17.6211 -13.4524,-1.98209 -19.9281,-13.53458 -14.418,-24.84766 14.6984,-30.17821 46.4978,-10.79781 55.6563,-3.86914 38.4657,29.10042 21.7314,84.86365 -16.9415,111.77539 -1.662,5.27178 -9.4628,28.78049 -17.6445,32.85156 -5.5028,2.73811 -18.7289,7.70359 -21.5,0.5 5.6681,-5.81657 13.1133,-11.36602 12.5195,-20.80859 -28.1463,7.60777 -61.8376,0.32527 -93.6367,-34.28906 -22.6056,-26.61776 -25.9725,-64.58218 -14.1582,-95.55469 31.1367,-77.56514 94.286,-177.694011 4.5977,-243.357424 -38.9401,-24.528 -92.8699,-37.712981 -138.0429,-38.498047 v 13.240235 h -13.2872 z M 315.67524,53.882319 h 131.10154 131.1035 v 13.28711 h -31.8906 V 303.68506 h -24.8028 V 67.169429 h -74.4101 -131.10154 z m 178.10934,37.66211 h 12.4023 v 41.933601 h -12.4023 z M 99.481878,344.76318 c 3.435242,0 6.199222,2.76398 6.199222,6.19922 v 17.7168 c 0,3.43523 -2.76398,6.20117 -6.199222,6.20117 -3.43524,0 -6.20117,-2.76594 -6.20117,-6.20117 v -17.7168 c 0,-3.43524 2.76593,-6.19922 6.20117,-6.19922 z m 694.591802,0 c 3.4352,0 6.2011,2.76398 6.2011,6.19922 v 17.7168 c 0,3.43523 -2.7659,6.20117 -6.2011,6.20117 -3.4353,0 -6.2012,-2.76594 -6.2012,-6.20117 v -17.7168 c 0,-3.43524 2.7659,-6.19922 6.2012,-6.19922 z m -627.26954,56.69141 c 3.43525,0 6.20118,2.76593 6.20118,6.20117 v 17.7168 c 0,3.43523 -2.76593,6.20117 -6.20118,6.20117 -3.43523,0 -6.20117,-2.76594 -6.20117,-6.20117 v -17.7168 c 0,-3.43524 2.76594,-6.20117 6.20117,-6.20117 z m 559.94524,0 c 3.4353,0 6.2012,2.76593 6.2012,6.20117 v 17.7168 c 0,3.43523 -2.7659,6.20117 -6.2012,6.20117 -3.4352,0 -6.1992,-2.76594 -6.1992,-6.20117 v -17.7168 c 0,-3.43524 2.764,-6.20117 6.1992,-6.20117 z"
         style="fill:#ffdd55;fill-opacity:1;stroke:#000000;stroke-width:1.25;stroke-linecap:butt;stroke-linejoin:miter;stroke-miterlimit:4;stroke-dasharray:none;stroke-opacity:1" />
      <path
         inkscape:connector-curvature="0"
         id="path4965"
         d="m 300.1616,619.91747 c -1.4717,-0.0122 -2.9336,-0.0107 -4.3848,0.004 v 13.27539 h 6.6446 v 78.47265 h 28.3457 V 698.3824 h 14.1738 v -74.38281 c -15.343,-2.59184 -30.5235,-3.96426 -44.7793,-4.08203 z"
         style="fill:#ffdd55;fill-opacity:1;stroke:#000000;stroke-width:1.25;stroke-linecap:butt;stroke-linejoin:miter;stroke-miterlimit:4;stroke-dasharray:none;stroke-opacity:1" />
      <path
         inkscape:connector-curvature="0"
         id="path4322-6-6"
         d="m 1459.7263,1014.1983 v -66.21874 h -46.5059 v -13.2871 h 57.5801 v -301.1817 h -57.5801 v -13.2871 h 31.8906 v -14.1738 c 0,-23.5999 -32.6265,-67.92182 -48.0253,-77.67582 -76.2925,-48.3254 -136.6815,-20.2774 -186.5,18.9356 -42.4377,34.69972 -46.2055,106.60502 -25.7598,161.94722 32.2456,80.6991 108.9951,115.469 151.6133,53.4493 13.8869,-27.6022 10.5359,-63.5464 -25.8828,-78.1856 -15.3936,-6.1877 -46.1755,5.5597 -45.4493,25.3203 0.4822,13.1202 9.6163,22.2031 23.8125,18.0879 4.1398,-9.9788 -13.9079,-11.4135 5.1914,-17.6211 13.4524,1.9821 19.9281,13.5346 14.418,24.8477 -14.6984,30.1782 -46.4977,10.7978 -55.6562,3.8691 -38.4658,-29.1004 -21.7314,-84.8636 16.9414,-111.7754 1.662,-5.2718 9.4628,-28.7804 17.6445,-32.8515 5.5028,-2.7381 18.7289,-7.7036 21.5,-0.5 -5.6681,5.8166 -13.1133,11.366 -12.5195,20.8086 28.1463,-7.6078 61.8376,-0.3253 93.6367,34.289 22.6056,26.6178 25.9725,64.5822 14.1582,95.5547 -31.1367,77.5651 -94.286,177.694 -4.5977,243.35737 17.6792,11.1359 38.452,19.92797 60.0899,26.29107 z M 1197.0271,657.09866 c -3.4353,0 -6.2012,-2.7639 -6.2012,-6.1992 v -17.7168 c 0,-3.4352 2.7659,-6.2012 6.2012,-6.2012 3.4352,0 6.2011,2.766 6.2011,6.2012 v 17.7168 c 0,3.4353 -2.7659,6.1992 -6.2011,6.1992 z m 67.3242,-56.6913 c -3.4353,0 -6.2012,-2.766 -6.2012,-6.2012 v -17.71682 c 0,-3.4352 2.7659,-6.2012 6.2012,-6.2012 3.4352,0 6.1992,2.766 6.1992,6.2012 v 17.71682 c 0,3.4352 -2.764,6.2012 -6.1992,6.2012 z"
         style="fill:#ffdd55;fill-opacity:1;stroke:#000000;stroke-width:1.25;stroke-linecap:butt;stroke-linejoin:miter;stroke-miterlimit:4;stroke-dasharray:none;stroke-opacity:1" />
      <path
         id="rect5754-4-0-2"
         d="m 896.61366,781.24161 h -17.71679 v 13.2871 h -17.7168 v -13.2871 h -17.7168 v 81.14059 h 7.08789 v 17.7168 h -7.08789 v 81.1426 h 17.7168 v -13.2871 h 17.7168 v 13.2871 h 17.71679 v -83.3574 h -13.28711 v -13.2871 h 13.28711 z"
         style="opacity:1;fill:#ffdd55;fill-opacity:1;stroke:#000000;stroke-width:1.25;stroke-linecap:butt;stroke-linejoin:miter;stroke-miterlimit:4;stroke-dasharray:none;stroke-dashoffset:0;stroke-opacity:1"
         inkscape:connector-curvature="0" />
      <path
         inkscape:connector-curvature="0"
         id="path4322-6-0-7"
         d="m 353.99552,391.48779 v 78.09375 h 115.06246 v 13.28711 h -17.7168 v 301.18164 h 17.7168 v 13.28711 h -31.8906 v 14.16992 c 0,23.59992 32.6246,67.92189 48.0234,77.67579 76.2925,48.3255 136.6835,20.2794 186.502,-18.9336 84.0847,-97.23439 3.5929,-186.32208 -42.8203,-221.50391 -24.6239,-18.66523 -31.6354,-56.10994 -2.4199,-82.32226 12.3489,-11.07942 45.2929,-10.56725 51.3691,8.25 4.0342,12.49385 -1.4439,24.15223 -16.1914,25.14062 -7.3032,-7.96117 9.1663,-15.48231 -10.9043,-14.7832 -11.9632,6.46353 -14.0979,19.53304 -5.0508,28.2793 24.1335,23.33108 47.3867,-5.75523 53.6231,-15.39844 35.2808,-54.55373 -40.0823,-120.34012 -103.334,-97.59961 -21.9716,7.8991 -42.4836,26.47878 -56.3867,59.92383 -12.1385,32.74423 -2.3161,69.5728 19.3789,94.63672 42.4127,47.31653 60.6044,44.30641 71.4804,85.02929 5.5292,20.70265 -2.7692,40.7291 -19.0117,53.56055 -2.8138,8.30433 -9.5643,26.1996 -16.6055,29.70313 -5.5027,2.7381 -18.7289,7.70359 -21.5,0.5 5.0801,-5.21299 11.5934,-10.21018 12.4629,-17.98829 -26.8085,6.31203 -61.4854,-2.17723 -93.58,-37.11328 -22.6056,-26.61776 -25.9745,-64.58413 -14.1602,-95.55664 31.1367,-77.56515 94.286,-177.69403 4.5977,-243.35742 -36.2729,-22.84802 -85.55146,-35.85217 -128.64456,-38.16211 z M 685.25138,760.4624 c 3.4352,0 6.2012,2.76594 6.2012,6.20117 v 17.7168 c 0,3.43524 -2.766,6.19922 -6.2012,6.19922 -3.4352,0 -6.2012,-2.76398 -6.2012,-6.19922 v -17.7168 c 0,-3.43523 2.766,-6.20117 6.2012,-6.20117 z m -67.3223,56.69336 c 3.4353,0 6.1992,2.76594 6.1992,6.20117 v 17.71488 c 0,3.4352 -2.7639,6.2011 -6.1992,6.2011 -3.4352,0 -6.2011,-2.7659 -6.2011,-6.2011 v -17.71488 c 0,-3.43523 2.7659,-6.20117 6.2011,-6.20117 z"
         style="fill:#ffdd55;fill-opacity:1;stroke:#000000;stroke-width:1.25;stroke-linecap:butt;stroke-linejoin:miter;stroke-miterlimit:4;stroke-dasharray:none;stroke-opacity:1" />
      <path
         id="path4322-6-0-7-6"
         d="m 527.10158,1014.1323 v -78.09377 h -115.0625 v -13.2871 h 17.7168 V 621.56982 h -17.7168 v -13.2871 h 31.8906 v -14.1699 c 0,-23.5999 -32.6246,-67.9219 -48.0234,-77.6758 -76.2924,-48.3255 -136.6834,-20.2794 -186.5019,18.9336 -84.0847,97.2344 -3.5929,186.3221 42.8203,221.50391 24.6239,18.6652 31.6354,56.1099 2.4199,82.3222 -12.3489,11.0795 -45.2929,10.5673 -51.3691,-8.25 -4.0342,-12.4938 1.4439,-24.1522 16.1914,-25.1406 7.3032,7.9612 -9.1663,15.4823 10.9043,14.7832 11.9632,-6.4635 14.0979,-19.533 5.0508,-28.2793 -24.1335,-23.3311 -47.3867,5.7552 -53.6231,15.3985 -35.2808,54.5537 40.0823,120.3401 103.334,97.5996 21.9716,-7.8991 42.4836,-26.4788 56.3867,-59.9239 12.1384,-32.7442 2.3161,-69.5728 -19.3789,-94.6367 -42.4127,-47.31651 -60.6044,-44.30641 -71.4804,-85.02921 -5.5292,-20.7027 2.7692,-40.7291 19.0117,-53.5606 2.8138,-8.3043 9.5643,-26.1996 16.6055,-29.7031 5.5027,-2.7381 18.7289,-7.7036 21.5,-0.5 -5.0801,5.213 -11.5934,10.2102 -12.4629,17.9883 26.8085,-6.3121 61.4853,2.1772 93.5799,37.1132 22.6056,26.6178 25.9745,64.5842 14.1602,95.5567 -31.1367,77.56511 -94.2859,177.69401 -4.5977,243.35741 36.2729,22.848 85.5515,35.85207 128.6446,38.16207 z M 195.84578,645.15772 c -3.4352,0 -6.2012,-2.7659 -6.2012,-6.2012 v -17.7168 c 0,-3.4352 2.766,-6.1992 6.2012,-6.1992 3.4352,0 6.2012,2.764 6.2012,6.1992 v 17.7168 c 0,3.4353 -2.766,6.2012 -6.2012,6.2012 z m 67.3223,-56.6934 c -3.4353,0 -6.1992,-2.7659 -6.1992,-6.2011 v -17.7149 c 0,-3.4352 2.7639,-6.2011 6.1992,-6.2011 3.4352,0 6.2011,2.7659 6.2011,6.2011 v 17.7149 c 0,3.4352 -2.7659,6.2011 -6.2011,6.2011 z"
         style="fill:#ffdd55;fill-opacity:1;stroke:#000000;stroke-width:1.25;stroke-linecap:butt;stroke-linejoin:miter;stroke-miterlimit:4;stroke-dasharray:none;stroke-opacity:1"
         inkscape:connector-curvature="0" />
      <path
         inkscape:connector-curvature="0"
         id="rect5754-0-4-7"
         d="m 114.80493,500.72263 v 13.28796 H 97.089481 v 99.21203 h 17.715449 v 13.28797 h 17.71729 v -13.28797 h 17.71545 v -40.74828 h -7.08618 v -17.71545 h 7.08618 v -40.7483 h -17.71545 v -13.28796 z"
         style="opacity:1;fill:#ffdd55;fill-opacity:1;stroke:#000000;stroke-width:1.25;stroke-linecap:butt;stroke-linejoin:miter;stroke-miterlimit:4;stroke-dasharray:none;stroke-dashoffset:0;stroke-opacity:1" />
      <path
         inkscape:connector-curvature="0"
         id="path4322-6-0-7-9"
         d="M 878.27875,321.1072 H 956.3725 V 206.0447 h 13.28711 v 17.7168 h 301.18169 v -17.7168 h 13.2871 v 31.8906 h 14.1699 c 23.5999,0 67.9219,-32.6246 77.6758,-48.0234 48.3255,-76.29247 20.2794,-136.683471 -18.9336,-186.501971 -97.2344,-84.0847 -186.3221,-3.5929 -221.5039,42.8203 -18.6652,24.6239 -56.11,31.6354 -82.3223,2.4199 -11.0794,-12.3489 -10.5673,-45.2929 8.25,-51.3691 12.4939,-4.0342 24.1522,1.4439 25.1406,16.1914 -7.9611,7.3032 -15.4823,-9.1663 -14.7832,10.9043 6.4636,11.9632 19.5331,14.0979 28.2793,5.0508 23.3311,-24.1335 -5.7552,-47.3867 -15.3984,-53.6231 -54.5538,-35.2808 -120.34014,40.0823 -97.59963,103.334 7.8991,21.971601 26.47873,42.483601 59.92383,56.386701 32.7442,12.1385 69.5728,2.3161 94.6367,-19.3789 47.3166,-42.412701 44.3065,-60.604401 85.0293,-71.480401 20.7027,-5.5292 40.7291,2.7692 53.5606,19.0117 8.3043,2.8138 26.1996,9.5643 29.7031,16.6055 2.7381,5.5027 7.7036,18.7289 0.5,21.500001 -5.213,-5.080101 -10.2102,-11.593401 -17.9883,-12.462901 6.3121,26.808501 -2.1772,61.485401 -37.1133,93.579971 -26.6177,22.6056 -64.5841,25.9745 -95.5566,14.1602 -77.5652,-31.13667 -177.69405,-94.28597 -243.35744,-4.5977 -22.84802,36.2729 -35.85217,85.5515 -38.16211,128.6446 z M 1247.2534,-10.148671 c 0,-3.4352 2.7659,-6.2012 6.2012,-6.2012 h 17.7168 c 3.4352,0 6.1992,2.766 6.1992,6.2012 0,3.4352 -2.764,6.2012 -6.1992,6.2012 h -17.7168 c -3.4353,0 -6.2012,-2.766 -6.2012,-6.2012 z m 56.6933,67.3223 c 0,-3.4353 2.766,-6.1992 6.2012,-6.1992 h 17.7149 c 3.4352,0 6.2011,2.7639 6.2011,6.1992 0,3.4352 -2.7659,6.2011 -6.2011,6.2011 h -17.7149 c -3.4352,0 -6.2012,-2.7659 -6.2012,-6.2011 z"
         style="fill:#ffdd55;fill-opacity:1;stroke:#000000;stroke-width:1.25;stroke-linecap:butt;stroke-linejoin:miter;stroke-miterlimit:4;stroke-dasharray:none;stroke-opacity:1" />
      <path
         inkscape:connector-curvature="0"
         id="path1157"
         d="m 74.89009,825.76214 c -0.0122,-1.47169 -0.0111,-2.93428 0.004,-4.38544 h 13.27515 v 6.64491 h 65.18372 v 124.45865 h 13.28796 v -31.88971 h 49.98412 v 35.9729 h 13.28797 v 13.28803 h -13.28797 v 39.86202 h -0.011 c -36.67792,0 -74.8967,-5.0066 -103.18909,-43.65046 -24.93742,-39.58968 -38.15794,-94.6784 -38.53486,-140.3009 z"
         style="fill:#ffdd55;fill-opacity:1;stroke:#000000;stroke-width:1.25;stroke-linecap:butt;stroke-linejoin:miter;stroke-miterlimit:4;stroke-dasharray:none;stroke-opacity:1" />
      <path
         inkscape:connector-curvature="0"
         id="path4322-6-3"
         d="m 907.86611,-36.371628 v 13.287965 h 35.97291 V 102.32527 H 911.9493 v 13.28796 h 31.8915 v 14.17237 c 0,23.59992 -32.62612,67.92303 -48.02494,77.677 -76.29243,48.32541 -136.68168,20.27809 -186.50024,-18.93494 -43.98384,-39.83762 -51.08306,-159.121158 38.92462,-195.512685 36.95878,-16.080104 83.38378,-16.041938 106.61494,19.489743 16.90875,25.861574 10.53684,63.548691 -25.88194,78.187861 -15.39347,6.18771 -46.17665,-5.56106 -45.45047,-25.321657 0.48225,-13.120152 9.61669,-22.204161 23.81288,-18.088987 4.13981,9.978863 -13.90819,11.414466 5.19103,17.622075 13.45247,-1.982091 19.92862,-13.534331 14.41772,-24.847415 -14.69831,-30.178208 -46.49634,-10.797684 -55.65488,-3.869016 -37.43053,28.317262 -28.24949,70.559141 2.95904,87.718501 3.28743,7.57099 7.5569,15.354 11.9384,17.53418 5.50284,2.73811 18.72919,7.70347 21.50025,0.49988 -3.30862,-3.39532 -7.20684,-6.70858 -9.77597,-10.74829 25.59853,2.67299 58.07916,-8.6304 90.89353,-44.349971 22.60312,-26.614785 15.22706,-77.077755 -34.07222,-109.925542 h 39.84553 V -36.371628 Z M 695.75675,78.748609 c -3.43529,0 -6.20185,2.76655 -6.20185,6.20178 v 17.715451 c 0,3.43525 2.76656,6.20179 6.20185,6.20179 3.43518,0 6.19987,-2.76654 6.19987,-6.20179 V 84.950389 c 0,-3.43523 -2.76469,-6.20178 -6.19987,-6.20178 z m 67.32234,56.693111 c -3.43519,0 -6.19997,2.76655 -6.19997,6.20178 v 17.71546 c 0,3.43524 2.76478,6.20178 6.19997,6.20178 3.43528,0 6.20175,-2.76654 6.20175,-6.20178 V 141.6435 c 0,-3.43523 -2.76647,-6.20178 -6.20175,-6.20178 z"
         style="fill:#ffdd55;fill-opacity:1;stroke:#000000;stroke-width:1.25;stroke-linecap:butt;stroke-linejoin:miter;stroke-miterlimit:4;stroke-dasharray:none;stroke-opacity:1" />
      <path
         inkscape:connector-curvature="0"
         id="path4324-9"
         d="m 1080.9316,691.19638 v 28.19275 h -13.2861 v -28.0133 a 159.44882,159.44882 0 0 0 -101.20058,41.87621 l 19.83764,19.83765 -9.39513,9.39698 -19.77906,-19.77906 a 159.44882,159.44882 0 0 0 -42.11059,101.14013 h 28.18908 v 13.28797 83.20677 a 159.44882,159.44882 0 0 0 13.98743,17.86743 l 19.71314,-19.71309 9.39513,9.39516 -19.73327,19.73503 a 159.44882,159.44882 0 0 0 101.09621,41.98059 v -28.01325 h 13.2861 v 28.11215 a 159.44882,159.44882 0 0 0 101.25,-41.92565 l -19.8871,-19.88887 9.3951,-9.39516 19.8285,19.8285 a 159.44882,159.44882 0 0 0 13.8721,-17.66606 v -83.52355 -13.28797 h 28.0023 A 159.44882,159.44882 0 0 0 1191.498,742.67831 l -19.8084,19.80836 -9.3951,-9.39698 19.834,-19.83398 a 159.44882,159.44882 0 0 0 -101.1969,-42.05933 z m 7.0862,35.27893 h 18.6017 v 12.40173 h -18.6017 z m -78.5595,13.46191 8.7689,8.76893 -13.1544,13.15429 -8.76887,-8.77075 z m 175.3563,19.44581 13.1525,13.15246 -8.7689,8.76892 -13.1525,-13.15246 z m -75.0933,29.98718 h 56.6931 v 47.47924 h -56.6931 z m -127.55861,1.77063 h 51.37761 v 54.92249 h -51.37761 z m 63.77931,0 h 51.3775 v 54.92249 h -51.3775 z m -112.44507,26.98425 h 12.40173 v 18.60168 h -12.40173 z m 21.42699,12.4347 h 13.28614 v 13.28795 h -13.28614 z m 225.44308,0 h 13.2862 v 13.28795 h -13.2862 z m 5.5353,33.6621 h 12.4017 v 18.60168 h -12.4017 z m -105.9338,12.57569 h 18.6017 v 9.74304 h -18.6017 z m 78.3765,4.27002 a 20.816929,20.816929 0 0 1 20.8172,20.81722 20.816929,20.816929 0 0 1 -20.8172,20.81728 20.816929,20.816929 0 0 1 -20.8155,-20.81728 20.816929,20.816929 0 0 1 20.8155,-20.81722 z m -129.7248,2.46093 h 42.5208 v 24.80348 h -42.5208 z m 80.9967,15.69951 a 11.072834,11.072834 0 0 1 11.0724,11.07234 11.072834,11.072834 0 0 1 -11.0724,11.07235 11.072834,11.072834 0 0 1 -11.0724,-11.07235 11.072834,11.072834 0 0 1 11.0724,-11.07234 z m -137.11302,7.32413 13.15246,13.15434 -8.76891,8.7689 -13.1543,-13.15246 z m 171.00042,32.57081 8.7689,8.769 -13.1544,13.15425 -8.7689,-8.76891 z m -101.5467,22.98346 h 18.6017 v 12.40172 h -18.6017 z"
         style="opacity:1;fill:#ffdd55;fill-opacity:1;stroke:#000000;stroke-width:1.25;stroke-linecap:butt;stroke-linejoin:miter;stroke-miterlimit:4;stroke-dasharray:none;stroke-dashoffset:0;stroke-opacity:1" />
      <text
         id="text5448"
         y="69.710381"
         x="51.163582"
         style="font-style:normal;font-weight:normal;font-size:70px;line-height:1.25;font-family:sans-serif;letter-spacing:0px;word-spacing:0px;fill:#000000;fill-opacity:1;stroke:none;stroke-width:0.93749994"
         xml:space="preserve"><tspan
           style="font-style:normal;font-variant:normal;font-weight:bold;font-stretch:normal;font-size:70px;font-family:Helvetica;-inkscape-font-specification:'Helvetica Bold';stroke-width:0.93749994"
           y="69.710381"
           x="51.163582"
           id="tspan5446"
           sodipodi:role="line">12</tspan></text>
      <circle
         r="67.747108"
         cy="822.48627"
         cx="868.21924"
         id="path5468-3"
         style="fill:#aaccff;fill-opacity:0.51340996;stroke:none;stroke-width:1.24297154;stroke-miterlimit:4;stroke-dasharray:none;stroke-dashoffset:0;stroke-opacity:1" />
      <text
         id="text5448-5"
         y="847.26654"
         x="833.06537"
         style="font-style:normal;font-weight:normal;font-size:70px;line-height:1.25;font-family:sans-serif;letter-spacing:0px;word-spacing:0px;fill:#000000;fill-opacity:1;stroke:none;stroke-width:0.93749994"
         xml:space="preserve"><tspan
           style="font-style:normal;font-variant:normal;font-weight:bold;font-stretch:normal;font-size:70px;font-family:Helvetica;-inkscape-font-specification:'Helvetica Bold';stroke-width:0.93749994"
           y="847.26654"
           x="833.06537"
           id="tspan5446-8"
           sodipodi:role="line">11</tspan></text>
      <circle
         r="67.747108"
         cy="948.5556"
         cx="130.0332"
         id="path5468-35"
         style="fill:#aaccff;fill-opacity:0.51340996;stroke:none;stroke-width:1.24297154;stroke-miterlimit:4;stroke-dasharray:none;stroke-dashoffset:0;stroke-opacity:1" />
      <text
         id="text5448-6"
         y="972.89154"
         x="89.940422"
         style="font-style:normal;font-weight:normal;font-size:70px;line-height:1.25;font-family:sans-serif;letter-spacing:0px;word-spacing:0px;fill:#000000;fill-opacity:1;stroke:none;stroke-width:0.93749994"
         xml:space="preserve"><tspan
           style="font-style:normal;font-variant:normal;font-weight:bold;font-stretch:normal;font-size:70px;font-family:Helvetica;-inkscape-font-specification:'Helvetica Bold';stroke-width:0.93749994"
           y="972.89154"
           x="89.940422"
           id="tspan5446-1"
           sodipodi:role="line">10</tspan></text>
      <circle
         r="67.747108"
         cy="170.49895"
         cx="834.25189"
         id="path5468-7"
         style="fill:#aaccff;fill-opacity:0.51340996;stroke:none;stroke-width:1.24297154;stroke-miterlimit:4;stroke-dasharray:none;stroke-dashoffset:0;stroke-opacity:1" />
      <text
         id="text5448-9"
         y="194.76653"
         x="814.94037"
         style="font-style:normal;font-weight:normal;font-size:70px;line-height:1.25;font-family:sans-serif;letter-spacing:0px;word-spacing:0px;fill:#000000;fill-opacity:1;stroke:none;stroke-width:0.93749994"
         xml:space="preserve"><tspan
           style="font-style:normal;font-variant:normal;font-weight:bold;font-stretch:normal;font-size:70px;font-family:Helvetica;-inkscape-font-specification:'Helvetica Bold';stroke-width:0.93749994"
           y="194.76653"
           x="814.94037"
           id="tspan5446-2"
           sodipodi:role="line">9</tspan></text>
      <circle
         r="67.747108"
         cy="867.39105"
         cx="399.62057"
         id="path5468-4"
         style="fill:#aaccff;fill-opacity:0.51340996;stroke:none;stroke-width:1.24297154;stroke-miterlimit:4;stroke-dasharray:none;stroke-dashoffset:0;stroke-opacity:1" />
      <text
         id="text5448-8"
         y="891.64154"
         x="380.5654"
         style="font-style:normal;font-weight:normal;font-size:70px;line-height:1.25;font-family:sans-serif;letter-spacing:0px;word-spacing:0px;fill:#000000;fill-opacity:1;stroke:none;stroke-width:0.93749994"
         xml:space="preserve"><tspan
           style="font-style:normal;font-variant:normal;font-weight:bold;font-stretch:normal;font-size:70px;font-family:Helvetica;-inkscape-font-specification:'Helvetica Bold';stroke-width:0.93749994"
           y="891.64154"
           x="380.5654"
           id="tspan5446-3"
           sodipodi:role="line">8</tspan></text>
      <circle
         r="67.747108"
         cy="51.560955"
         cx="1284.2861"
         id="path5468-9"
         style="fill:#aaccff;fill-opacity:0.51340996;stroke:none;stroke-width:1.24297154;stroke-miterlimit:4;stroke-dasharray:none;stroke-dashoffset:0;stroke-opacity:1" />
      <text
         id="text5448-64"
         y="76.016525"
         x="1264.9404"
         style="font-style:normal;font-weight:normal;font-size:70px;line-height:1.25;font-family:sans-serif;letter-spacing:0px;word-spacing:0px;fill:#000000;fill-opacity:1;stroke:none;stroke-width:0.93749994"
         xml:space="preserve"><tspan
           style="font-style:normal;font-variant:normal;font-weight:bold;font-stretch:normal;font-size:70px;font-family:Helvetica;-inkscape-font-specification:'Helvetica Bold';stroke-width:0.93749994"
           y="76.016525"
           x="1264.9404"
           id="tspan5446-7"
           sodipodi:role="line">7</tspan></text>
      <circle
         r="67.747108"
         cy="666.02142"
         cx="322.37698"
         id="path5468-73"
         style="fill:#aaccff;fill-opacity:0.51340996;stroke:none;stroke-width:1.24297154;stroke-miterlimit:4;stroke-dasharray:none;stroke-dashoffset:0;stroke-opacity:1" />
      <text
         id="text5448-1"
         y="690.39154"
         x="303.06546"
         style="font-style:normal;font-weight:normal;font-size:70px;line-height:1.25;font-family:sans-serif;letter-spacing:0px;word-spacing:0px;fill:#000000;fill-opacity:1;stroke:none;stroke-width:0.93749994"
         xml:space="preserve"><tspan
           style="font-style:normal;font-variant:normal;font-weight:bold;font-stretch:normal;font-size:70px;font-family:Helvetica;-inkscape-font-specification:'Helvetica Bold';stroke-width:0.93749994"
           y="690.39154"
           x="303.06546"
           id="tspan5446-74"
           sodipodi:role="line">6</tspan></text>
      <circle
         r="67.747108"
         cy="777.21039"
         cx="1412.0521"
         id="path5468-96"
         style="fill:#aaccff;fill-opacity:0.51340996;stroke:none;stroke-width:1.24297154;stroke-miterlimit:4;stroke-dasharray:none;stroke-dashoffset:0;stroke-opacity:1" />
      <text
         id="text5448-98"
         y="801.01654"
         x="1393.0653"
         style="font-style:normal;font-weight:normal;font-size:70px;line-height:1.25;font-family:sans-serif;letter-spacing:0px;word-spacing:0px;fill:#000000;fill-opacity:1;stroke:none;stroke-width:0.93749994"
         xml:space="preserve"><tspan
           style="font-style:normal;font-variant:normal;font-weight:bold;font-stretch:normal;font-size:70px;font-family:Helvetica;-inkscape-font-specification:'Helvetica Bold';stroke-width:0.93749994"
           y="801.01654"
           x="1393.0653"
           id="tspan5446-0"
           sodipodi:role="line">5</tspan></text>
      <circle
         r="67.747108"
         cy="629.51508"
         cx="827.9165"
         id="path5468-36"
         style="fill:#aaccff;fill-opacity:0.51340996;stroke:none;stroke-width:1.24297154;stroke-miterlimit:4;stroke-dasharray:none;stroke-dashoffset:0;stroke-opacity:1" />
      <text
         id="text5448-65"
         y="654.14154"
         x="808.69043"
         style="font-style:normal;font-weight:normal;font-size:70px;line-height:1.25;font-family:sans-serif;letter-spacing:0px;word-spacing:0px;fill:#000000;fill-opacity:1;stroke:none;stroke-width:0.93749994"
         xml:space="preserve"><tspan
           style="font-style:normal;font-variant:normal;font-weight:bold;font-stretch:normal;font-size:70px;font-family:Helvetica;-inkscape-font-specification:'Helvetica Bold';stroke-width:0.93749994"
           y="654.14154"
           x="808.69043"
           id="tspan5446-4"
           sodipodi:role="line">4</tspan></text>
      <circle
         r="67.747108"
         cy="217.35684"
         cx="424.55228"
         id="path5468-2"
         style="fill:#aaccff;fill-opacity:0.51340996;stroke:none;stroke-width:1.24297154;stroke-miterlimit:4;stroke-dasharray:none;stroke-dashoffset:0;stroke-opacity:1" />
      <text
         id="text5448-3"
         y="241.64151"
         x="405.56546"
         style="font-style:normal;font-weight:normal;font-size:70px;line-height:1.25;font-family:sans-serif;letter-spacing:0px;word-spacing:0px;fill:#000000;fill-opacity:1;stroke:none;stroke-width:0.93749994"
         xml:space="preserve"><tspan
           style="font-style:normal;font-variant:normal;font-weight:bold;font-stretch:normal;font-size:70px;font-family:Helvetica;-inkscape-font-specification:'Helvetica Bold';stroke-width:0.93749994"
           y="241.64151"
           x="405.56546"
           id="tspan5446-12"
           sodipodi:role="line">3</tspan></text>
      <circle
         r="67.747108"
         cy="951.74164"
         cx="765.34814"
         id="path5468-1"
         style="fill:#aaccff;fill-opacity:0.51340996;stroke:none;stroke-width:1.24297154;stroke-miterlimit:4;stroke-dasharray:none;stroke-dashoffset:0;stroke-opacity:1" />
      <text
         id="text5448-2"
         y="976.64154"
         x="746.19043"
         style="font-style:normal;font-weight:normal;font-size:70px;line-height:1.25;font-family:sans-serif;letter-spacing:0px;word-spacing:0px;fill:#000000;fill-opacity:1;stroke:none;stroke-width:0.93749994"
         xml:space="preserve"><tspan
           style="font-style:normal;font-variant:normal;font-weight:bold;font-stretch:normal;font-size:70px;font-family:Helvetica;-inkscape-font-specification:'Helvetica Bold';stroke-width:0.93749994"
           y="976.64154"
           x="746.19043"
           id="tspan5446-5"
           sodipodi:role="line">2</tspan></text>
      <circle
         r="67.747108"
         cy="913.73633"
         cx="1068.1118"
         id="path5468-6"
         style="fill:#aaccff;fill-opacity:0.51340996;stroke:none;stroke-width:1.24297154;stroke-miterlimit:4;stroke-dasharray:none;stroke-dashoffset:0;stroke-opacity:1" />
      <text
         id="text5448-4"
         y="938.5166"
         x="1052.4404"
         style="font-style:normal;font-weight:normal;font-size:70px;line-height:1.25;font-family:sans-serif;letter-spacing:0px;word-spacing:0px;fill:#000000;fill-opacity:1;stroke:none;stroke-width:0.93749994"
         xml:space="preserve"><tspan
           style="font-style:normal;font-variant:normal;font-weight:bold;font-stretch:normal;font-size:70px;font-family:Helvetica;-inkscape-font-specification:'Helvetica Bold';stroke-width:0.93749994"
           y="938.5166"
           x="1052.4404"
           id="tspan5446-80"
           sodipodi:role="line">1</tspan></text>
      <circle
         r="67.747108"
         cy="366.74161"
         cx="1076.7886"
         id="path5468-9-5"
         style="fill:#aaccff;fill-opacity:0.51340996;stroke:none;stroke-width:1.24297154;stroke-miterlimit:4;stroke-dasharray:none;stroke-dashoffset:0;stroke-opacity:1" />
      <text
         id="text5448-64-4"
         y="391.19717"
         x="1057.4429"
         style="font-style:normal;font-weight:normal;font-size:70px;line-height:1.25;font-family:sans-serif;letter-spacing:0px;word-spacing:0px;fill:#000000;fill-opacity:1;stroke:none;stroke-width:0.93749994"
         xml:space="preserve"><tspan
           style="font-style:normal;font-variant:normal;font-weight:bold;font-stretch:normal;font-size:70px;font-family:Helvetica;-inkscape-font-specification:'Helvetica Bold';stroke-width:0.93749994"
           y="391.19717"
           x="1057.4429"
           id="tspan5446-7-2"
           sodipodi:role="line">7</tspan></text>
      <circle
         r="67.747108"
         cy="822.99164"
         cx="586.16357"
         id="path5468-4-6"
         style="fill:#aaccff;fill-opacity:0.51340996;stroke:none;stroke-width:1.24297154;stroke-miterlimit:4;stroke-dasharray:none;stroke-dashoffset:0;stroke-opacity:1" />
      <text
         id="text5448-8-7"
         y="847.24213"
         x="567.10846"
         style="font-style:normal;font-weight:normal;font-size:70px;line-height:1.25;font-family:sans-serif;letter-spacing:0px;word-spacing:0px;fill:#000000;fill-opacity:1;stroke:none;stroke-width:0.93749994"
         xml:space="preserve"><tspan
           style="font-style:normal;font-variant:normal;font-weight:bold;font-stretch:normal;font-size:70px;font-family:Helvetica;-inkscape-font-specification:'Helvetica Bold';stroke-width:0.93749994"
           y="847.24213"
           x="567.10846"
           id="tspan5446-3-9"
           sodipodi:role="line">8</tspan></text>
      <circle
         r="67.747108"
         cy="142.99162"
         cx="193.66362"
         id="path5468-3-5"
         style="fill:#aaccff;fill-opacity:0.51340996;stroke:none;stroke-width:1.24297154;stroke-miterlimit:4;stroke-dasharray:none;stroke-dashoffset:0;stroke-opacity:1" />
      <text
         id="text5448-5-9"
         y="167.7719"
         x="158.50969"
         style="font-style:normal;font-weight:normal;font-size:70px;line-height:1.25;font-family:sans-serif;letter-spacing:0px;word-spacing:0px;fill:#000000;fill-opacity:1;stroke:none;stroke-width:0.93749994"
         xml:space="preserve"><tspan
           style="font-style:normal;font-variant:normal;font-weight:bold;font-stretch:normal;font-size:70px;font-family:Helvetica;-inkscape-font-specification:'Helvetica Bold';stroke-width:0.93749994"
           y="167.7719"
           x="158.50969"
           id="tspan5446-8-1"
           sodipodi:role="line">11</tspan></text>
      <circle
         r="67.747108"
         cy="561.30731"
         cx="104.56673"
         id="path5468-0"
         style="fill:#aaccff;fill-opacity:0.51340996;stroke:none;stroke-width:1.24297154;stroke-miterlimit:4;stroke-dasharray:none;stroke-dashoffset:0;stroke-opacity:1" />
      <text
         id="text5448-89"
         y="586.20721"
         x="64.593597"
         style="font-style:normal;font-weight:normal;font-size:70px;line-height:1.25;font-family:sans-serif;letter-spacing:0px;word-spacing:0px;fill:#000000;fill-opacity:1;stroke:none;stroke-width:0.93749994"
         xml:space="preserve"><tspan
           style="font-style:normal;font-variant:normal;font-weight:bold;font-stretch:normal;font-size:70px;font-family:Helvetica;-inkscape-font-specification:'Helvetica Bold';stroke-width:0.93749994"
           y="586.20721"
           x="64.593597"
           id="tspan5446-9"
           sodipodi:role="line">12</tspan></text>
    </g>
  </g>
</svg>
