<?xml version="1.0" encoding="UTF-8" standalone="no"?>
<!-- Created with Inkscape (http://www.inkscape.org/) -->

<svg
   xmlns:dc="http://purl.org/dc/elements/1.1/"
   xmlns:cc="http://creativecommons.org/ns#"
   xmlns:rdf="http://www.w3.org/1999/02/22-rdf-syntax-ns#"
   xmlns:svg="http://www.w3.org/2000/svg"
   xmlns="http://www.w3.org/2000/svg"
   xmlns:sodipodi="http://sodipodi.sourceforge.net/DTD/sodipodi-0.dtd"
   xmlns:inkscape="http://www.inkscape.org/namespaces/inkscape"
   width="210mm"
   height="145mm"
   viewBox="0 0 210 145"
   version="1.1"
   id="svg9732"
   inkscape:version="0.92.2 5c3e80d, 2017-08-06"
   sodipodi:docname="Black_Squiggles.svg">
  <defs
     id="defs9726" />
  <sodipodi:namedview
     id="base"
     pagecolor="#ffffff"
     bordercolor="#666666"
     borderopacity="1.0"
     inkscape:pageopacity="0.0"
     inkscape:pageshadow="2"
     inkscape:zoom="0.35"
     inkscape:cx="-354.28572"
     inkscape:cy="560"
     inkscape:document-units="mm"
     inkscape:current-layer="layer1"
     showgrid="false"
     inkscape:window-width="1440"
     inkscape:window-height="855"
     inkscape:window-x="-16"
     inkscape:window-y="6"
     inkscape:window-maximized="0" />
  <metadata
     id="metadata9729">
    <rdf:RDF>
      <cc:Work
         rdf:about="">
        <dc:format>image/svg+xml</dc:format>
        <dc:type
           rdf:resource="http://purl.org/dc/dcmitype/StillImage" />
        <dc:title />
      </cc:Work>
    </rdf:RDF>
  </metadata>
  <g
     inkscape:label="Layer 1"
     inkscape:groupmode="layer"
     id="layer1"
     transform="translate(0,-152)">
    <path
       inkscape:connector-curvature="0"
       style="fill:#000000;fill-opacity:1;stroke:none;stroke-width:0.28200001;stroke-linecap:butt;stroke-linejoin:miter;stroke-miterlimit:4;stroke-dasharray:none;stroke-opacity:1"
       d="m 103.76236,152.32864 c -12.875676,0.10635 -28.422962,3.83803 -39.596027,10.8758 -25.312088,18.5317 -7.489867,46.78996 1.297601,68.68056 3.334232,8.74116 2.38365,19.45575 -3.996153,26.96789 C 34.644222,288.05115 3.0443655,248.34956 22.7461,233.44462 c 2.584732,-1.95546 11.559344,-7.42453 15.707558,1.09242 1.555128,3.19281 -0.272936,6.45259 -4.069503,7.01198 -5.390248,-1.75192 -0.296728,-2.15663 -1.465017,-4.97281 -4.006538,-1.16146 -6.583877,1.40177 -6.720021,5.10458 -0.204949,5.57685 8.482218,8.8926 12.826605,7.14632 10.278253,-4.13148 11.223697,-14.2759 7.304476,-22.06583 -12.027802,-17.50336 -33.687654,-7.69021 -42.7880765,15.08489 -5.7702322,15.61875 -4.707016,35.91166 7.2698445,45.70469 14.059888,11.06683 40.57114,11.04914 52.634505,5.34387 30.044783,-16.03798 54.039529,-13.79324 83.107039,0 12.06337,5.70527 38.57464,5.72296 52.63453,-5.34387 11.97686,-9.79303 13.04005,-30.08594 7.26985,-45.70469 -9.10043,-22.7751 -30.76025,-32.58822 -42.78811,-15.08489 -3.91919,7.7899 -2.97375,17.93435 7.30451,22.06583 4.34433,1.74628 13.03152,-1.56947 12.82657,-7.14632 -0.13608,-3.70281 -2.71348,-6.26604 -6.71999,-5.10458 -1.16832,2.81618 3.9252,3.22089 -1.46504,4.97281 -3.79657,-0.55939 -5.62458,-3.8192 -4.06951,-7.01198 4.14822,-8.51695 13.1228,-3.04791 15.70759,-1.09242 19.70171,14.90494 -11.89812,54.60653 -38.72171,25.40827 -6.37975,-7.51214 -7.33038,-18.22673 -3.99613,-26.96789 8.78747,-21.89059 26.60967,-50.14889 1.2976,-68.68056 -11.53348,-7.26482 -27.72816,-11.00675 -40.83368,-10.87478 -0.40951,-0.004 -0.82229,-0.004 -1.23763,0 z m 1.23763,41.7685 a 21.961192,14.132291 0 0 1 21.96146,14.13194 21.961192,14.132291 0 0 1 -21.96146,14.1325 21.961192,14.132291 0 0 1 -21.960921,-14.1325 21.961192,14.132291 0 0 1 21.960921,-14.13194 z"
       id="path4322-6-7-5-7-2" />
  </g>
</svg>
