<?xml version="1.0" encoding="UTF-8" standalone="no"?>
<!-- Created with Inkscape (http://www.inkscape.org/) -->

<svg
   xmlns:dc="http://purl.org/dc/elements/1.1/"
   xmlns:cc="http://creativecommons.org/ns#"
   xmlns:rdf="http://www.w3.org/1999/02/22-rdf-syntax-ns#"
   xmlns:svg="http://www.w3.org/2000/svg"
   xmlns="http://www.w3.org/2000/svg"
   xmlns:sodipodi="http://sodipodi.sourceforge.net/DTD/sodipodi-0.dtd"
   xmlns:inkscape="http://www.inkscape.org/namespaces/inkscape"
   width="210mm"
   height="145mm"
   viewBox="0 0 210 145"
   version="1.1"
   id="svg9732"
   inkscape:version="0.92.2 5c3e80d, 2017-08-06"
   sodipodi:docname="Blue_Sauiggles.svg">
  <defs
     id="defs9726" />
  <sodipodi:namedview
     id="base"
     pagecolor="#ffffff"
     bordercolor="#666666"
     borderopacity="1.0"
     inkscape:pageopacity="0.0"
     inkscape:pageshadow="2"
     inkscape:zoom="0.35"
     inkscape:cx="-240"
     inkscape:cy="560"
     inkscape:document-units="mm"
     inkscape:current-layer="layer1"
     showgrid="false"
     inkscape:window-width="1440"
     inkscape:window-height="855"
     inkscape:window-x="-16"
     inkscape:window-y="6"
     inkscape:window-maximized="0" />
  <metadata
     id="metadata9729">
    <rdf:RDF>
      <cc:Work
         rdf:about="">
        <dc:format>image/svg+xml</dc:format>
        <dc:type
           rdf:resource="http://purl.org/dc/dcmitype/StillImage" />
        <dc:title />
      </cc:Work>
    </rdf:RDF>
  </metadata>
  <g
     inkscape:label="Layer 1"
     inkscape:groupmode="layer"
     id="layer1"
     transform="translate(0,-152)">
    <path
       inkscape:connector-curvature="0"
       style="fill:#0091ff;fill-opacity:1;stroke:none;stroke-width:0.28200001;stroke-linecap:butt;stroke-linejoin:miter;stroke-miterlimit:4;stroke-dasharray:none;stroke-opacity:1"
       d="m 103.83975,152.32865 c -12.875679,0.10634 -28.422963,3.83802 -39.59603,10.8758 -25.312086,18.5317 -7.489895,46.78996 1.297601,68.68056 3.334204,8.74115 2.383651,19.45575 -3.996153,26.96788 -26.823557,29.19826 -58.4234164,-10.50332 -38.721679,-25.40827 2.584732,-1.95546 11.559344,-7.42453 15.707558,1.09243 1.555128,3.19281 -0.272936,6.45259 -4.069503,7.01198 -5.390248,-1.75192 -0.296728,-2.15663 -1.465017,-4.97281 -4.00654,-1.16146 -6.583905,1.40177 -6.720021,5.10458 -0.20495,5.57685 8.482218,8.89259 12.826605,7.14632 10.278251,-4.13148 11.223695,-14.27591 7.304476,-22.06583 -12.027831,-17.50337 -33.687682,-7.69022 -42.7880794,15.08489 -5.770231,15.61874 -4.707044,35.91165 7.2698474,45.70468 14.05986,11.06683 40.571138,11.04914 52.634503,5.34387 30.044785,-16.03798 54.039542,-13.79324 83.107052,0 12.06336,5.70527 38.57464,5.72296 52.63453,-5.34387 11.97686,-9.79303 13.04002,-30.08594 7.26985,-45.70468 -9.10043,-22.77511 -30.76025,-32.58823 -42.78811,-15.08489 -3.91919,7.7899 -2.97375,17.93435 7.30448,22.06583 4.34435,1.74627 13.03155,-1.56947 12.8266,-7.14632 -0.13609,-3.70281 -2.71348,-6.26604 -6.72002,-5.10458 -1.16829,2.81618 3.92523,3.22089 -1.46502,4.97281 -3.79656,-0.55939 -5.6246,-3.8192 -4.0695,-7.01198 4.14821,-8.51696 13.1228,-3.04792 15.70756,-1.09243 19.70173,14.90495 -11.8981,54.60653 -38.72168,25.40827 -6.37978,-7.51213 -7.33039,-18.22673 -3.99613,-26.96788 8.78747,-21.8906 26.60966,-50.14889 1.2976,-68.68056 -11.53349,-7.26483 -27.72816,-11.00675 -40.83369,-10.87479 -0.4095,-0.004 -0.82228,-0.004 -1.23763,0 z m 1.23763,41.76849 a 21.961192,14.132291 0 0 1 21.96146,14.13194 21.961192,14.132291 0 0 1 -21.96146,14.13251 21.961192,14.132291 0 0 1 -21.960951,-14.13251 21.961192,14.132291 0 0 1 21.960951,-14.13194 z"
       id="path4322-6-7-5-7-24" />
  </g>
</svg>
