<?xml version="1.0" encoding="UTF-8" standalone="no"?>
<!-- Created with Inkscape (http://www.inkscape.org/) -->

<svg
   xmlns:dc="http://purl.org/dc/elements/1.1/"
   xmlns:cc="http://creativecommons.org/ns#"
   xmlns:rdf="http://www.w3.org/1999/02/22-rdf-syntax-ns#"
   xmlns:svg="http://www.w3.org/2000/svg"
   xmlns="http://www.w3.org/2000/svg"
   xmlns:sodipodi="http://sodipodi.sourceforge.net/DTD/sodipodi-0.dtd"
   xmlns:inkscape="http://www.inkscape.org/namespaces/inkscape"
   width="210mm"
   height="145mm"
   viewBox="0 0 210 145"
   version="1.1"
   id="svg9732"
   inkscape:version="0.92.2 5c3e80d, 2017-08-06"
   sodipodi:docname="Green_Squiggles.svg">
  <defs
     id="defs9726" />
  <sodipodi:namedview
     id="base"
     pagecolor="#ffffff"
     bordercolor="#666666"
     borderopacity="1.0"
     inkscape:pageopacity="0.0"
     inkscape:pageshadow="2"
     inkscape:zoom="0.35"
     inkscape:cx="102.85714"
     inkscape:cy="674.28571"
     inkscape:document-units="mm"
     inkscape:current-layer="layer1"
     showgrid="false"
     inkscape:window-width="1440"
     inkscape:window-height="855"
     inkscape:window-x="-16"
     inkscape:window-y="6"
     inkscape:window-maximized="0" />
  <metadata
     id="metadata9729">
    <rdf:RDF>
      <cc:Work
         rdf:about="">
        <dc:format>image/svg+xml</dc:format>
        <dc:type
           rdf:resource="http://purl.org/dc/dcmitype/StillImage" />
        <dc:title />
      </cc:Work>
    </rdf:RDF>
  </metadata>
  <g
     inkscape:label="Layer 1"
     inkscape:groupmode="layer"
     id="layer1"
     transform="translate(0,-152)">
    <path
       style="fill:#4bd148;fill-opacity:1;stroke:none;stroke-width:0.28200001;stroke-linecap:butt;stroke-linejoin:miter;stroke-miterlimit:4;stroke-dasharray:none;stroke-opacity:1"
       d="m 103.76238,152.32866 c -12.875689,0.10637 -28.42297,3.83802 -39.596036,10.8758 -25.312089,18.53169 -7.489897,46.78995 1.297572,68.68055 3.334232,8.74115 2.383679,19.45575 -3.996126,26.96788 -26.823557,29.19826 -58.4234149,-10.50332 -38.72168,-25.40827 2.584733,-1.95546 11.559343,-7.42453 15.707558,1.09246 1.555131,3.1928 -0.272936,6.45256 -4.069504,7.01195 -5.390245,-1.75192 -0.296728,-2.15663 -1.465014,-4.97281 -4.00654,-1.16146 -6.583906,1.40176 -6.720022,5.10461 -0.20495,5.57682 8.482216,8.89259 12.826606,7.14631 10.278251,-4.1315 11.223697,-14.27593 7.304477,-22.06582 -12.027835,-17.5034 -33.687685,-7.69025 -42.7881089,15.08486 -5.770203,15.61874 -4.707016,35.91165 7.2698749,45.70468 14.05986,11.06683 40.571141,11.04914 52.634502,5.34387 30.044787,-16.03798 54.039551,-13.79324 83.107061,0 12.06336,5.70527 38.57464,5.72296 52.63453,-5.34387 11.97686,-9.79303 13.04002,-30.08594 7.26984,-45.70468 -9.10042,-22.77511 -30.76024,-32.58823 -42.7881,-15.08486 -3.9192,7.78987 -2.97375,17.93432 7.30447,22.06582 4.34436,1.74628 13.03156,-1.56949 12.82661,-7.14631 -0.13609,-3.70285 -2.71348,-6.26607 -6.72002,-5.10461 -1.16829,2.81618 3.92523,3.22089 -1.46502,4.97281 -3.79657,-0.55939 -5.6246,-3.81917 -4.0695,-7.01195 4.14821,-8.51699 13.12279,-3.04795 15.70755,-1.09246 19.70174,14.90495 -11.89809,54.60653 -38.72168,25.40827 -6.37977,-7.51213 -7.33038,-18.22673 -3.99612,-26.96788 8.78747,-21.8906 26.60966,-50.14889 1.2976,-68.68055 -11.53349,-7.26483 -27.72817,-11.00675 -40.83369,-10.87479 -0.40953,-0.004 -0.82228,-0.004 -1.23763,0 z m 1.23763,41.76848 a 21.961192,14.132291 0 0 1 21.96146,14.13197 21.961192,14.132291 0 0 1 -21.96146,14.13248 21.961192,14.132291 0 0 1 -21.960958,-14.13248 21.961192,14.132291 0 0 1 21.960958,-14.13197 z"
       id="path4322-6-7-5-7"
       inkscape:connector-curvature="0" />
  </g>
</svg>
