<?xml version="1.0" encoding="UTF-8" standalone="no"?>
<!-- Created with Inkscape (http://www.inkscape.org/) -->

<svg
   xmlns:dc="http://purl.org/dc/elements/1.1/"
   xmlns:cc="http://creativecommons.org/ns#"
   xmlns:rdf="http://www.w3.org/1999/02/22-rdf-syntax-ns#"
   xmlns:svg="http://www.w3.org/2000/svg"
   xmlns="http://www.w3.org/2000/svg"
   xmlns:sodipodi="http://sodipodi.sourceforge.net/DTD/sodipodi-0.dtd"
   xmlns:inkscape="http://www.inkscape.org/namespaces/inkscape"
   width="500mm"
   height="300mm"
   viewBox="0 0 1771.6535 1062.9921"
   id="svg2"
   version="1.1"
   inkscape:version="0.92.2 5c3e80d, 2017-08-06"
   sodipodi:docname="Outlines.svg"
   inkscape:export-filename="/Users/michaelkrzyzaniak/Documents/Dr_Squiggles/Software/Design_Files/3_point_75_mm/Outlines.png"
   inkscape:export-xdpi="199.9996"
   inkscape:export-ydpi="199.9996">
  <defs
     id="defs4" />
  <sodipodi:namedview
     id="base"
     pagecolor="#ffffff"
     bordercolor="#666666"
     borderopacity="1.0"
     inkscape:pageopacity="1"
     inkscape:pageshadow="2"
     inkscape:zoom="0.5"
     inkscape:cx="807.2904"
     inkscape:cy="540.70786"
     inkscape:document-units="mm"
     inkscape:current-layer="layer1"
     showgrid="false"
     inkscape:window-width="1440"
     inkscape:window-height="856"
     inkscape:window-x="39"
     inkscape:window-y="0"
     inkscape:window-maximized="0"
     inkscape:snap-bbox="true"
     inkscape:snap-bbox-midpoints="false"
     inkscape:snap-global="false"
     inkscape:bbox-paths="false"
     inkscape:bbox-nodes="false"
     inkscape:snap-bbox-edge-midpoints="true"
     inkscape:object-nodes="true"
     inkscape:snap-others="true"
     inkscape:snap-nodes="false"
     showguides="true"
     inkscape:snap-smooth-nodes="true"
     inkscape:snap-intersection-paths="true"
     inkscape:object-paths="true" />
  <metadata
     id="metadata7">
    <rdf:RDF>
      <cc:Work
         rdf:about="">
        <dc:format>image/svg+xml</dc:format>
        <dc:type
           rdf:resource="http://purl.org/dc/dcmitype/StillImage" />
        <dc:title />
      </cc:Work>
    </rdf:RDF>
  </metadata>
  <g
     inkscape:label="Layer 1"
     inkscape:groupmode="layer"
     id="layer1"
     transform="translate(0,10.629921)">
    <path
       style="fill:#ffd42a;fill-opacity:1;stroke:none;stroke-width:1;stroke-miterlimit:4;stroke-dasharray:none;stroke-opacity:1"
       d="m 756.93253,1029.3183 h -99.21286 v -13.2871 h 14.1738 v -15.0605 h 40.37696 11 v -46.9473 h -11 v -16.832 h 11 v -46.94933 h -11 v -14.6152 h 23.4023 v -56.6933 h -23.4023 -40.37696 v -15.0586 h -14.1738 v -13.2871 h 99.21286 z"
       id="rect1833-0"
       inkscape:connector-curvature="0" />
    <path
       style="opacity:1;fill:#ffd42a;fill-opacity:1;stroke:none;stroke-width:1;stroke-linecap:butt;stroke-linejoin:miter;stroke-miterlimit:4;stroke-dasharray:none;stroke-dashoffset:0;stroke-opacity:1"
       d="m 822.39452,462.01849 v 28.1172 h -13.2891 v -27.9941 a 159.44882,159.44882 0 0 0 -101.0664,41.9883 l 19.7051,19.707 -9.3946,9.3945 -19.7246,-19.7226 a 159.44882,159.44882 0 0 0 -13.9765,17.2851 v 83.7988 13.2891 h -27.9981 a 159.44882,159.44882 0 0 0 41.9375,101.1211 l 19.7617,-19.7598 9.3946,9.3946 -19.7832,19.78512 a 159.44882,159.44882 0 0 0 101.1445,42.0274 v -28.1114 h 13.2891 v 27.9981 a 159.44882,159.44882 0 0 0 101.1211,-41.9375 l -19.7598,-19.76172 9.3945,-9.3946 19.7852,19.7832 a 159.44882,159.44882 0 0 0 42.0273,-101.1445 h -28.1113 v -13.2891 -83.7988 a 159.44882,159.44882 0 0 0 -14.0098,-17.2519 l -19.6914,19.6894 -9.3945,-9.3945 19.7266,-19.7285 a 159.44882,159.44882 0 0 0 -101.0879,-42.0899 z m -29.6758,74.6231 h 46.0625 v 35.4316 h -46.0625 z m 16.3867,49.6054 h 13.2891 v 28.3457 h -13.2891 z"
       id="path4324-9-2"
       inkscape:connector-curvature="0" />
    <path
       style="fill:#ffd42a;fill-opacity:1;stroke:none;stroke-width:1;stroke-linecap:butt;stroke-linejoin:miter;stroke-miterlimit:4;stroke-dasharray:none;stroke-opacity:1"
       d="m 372.7206,10.450157 c -45.17332,0.784643 -99.1022,13.971626 -138.04293,38.5 -89.6883,65.663413 -26.53904,165.792283 4.59766,243.357423 11.8143,30.97251 8.44544,68.93693 -14.16016,95.55469 -31.7982,34.61339 -65.48887,41.89776 -93.63476,34.29101 -0.59261,9.4414 6.84991,14.99047 12.51758,20.80664 -2.7711,7.20359 -15.9972,2.23811 -21.5,-0.5 -8.18164,-4.07105 -15.98046,-27.57959 -17.64258,-32.85156 -38.67373,-26.91139 -55.40954,-82.67464 -16.94336,-111.77539 9.1585,-6.92867 40.95785,-26.30907 55.65625,3.86914 5.5101,11.31308 -0.96557,22.86557 -14.41797,24.84766 -19.0993,-6.20761 -1.05161,-7.64224 -5.19141,-17.6211 -14.1962,-4.11518 -23.3303,4.96773 -23.8125,18.08789 -0.7262,19.76059 30.05572,31.50803 45.44922,25.32032 36.4188,-14.63917 39.76972,-50.58339 25.88282,-78.18555 -42.6182,-62.01972 -119.36573,-27.24981 -151.61133,53.44922 -20.44569946,55.34224 -16.6798896,127.24759 25.75781,161.94726 49.8185,39.21304 110.20945,67.26097 186.50195,18.93555 15.3988,-9.75395 48.02344,-54.07586 48.02344,-77.67578 V 416.63375 H 248.26166 V 403.34664 H 379.3632 510.4667 v 13.28711 h -31.8906 v 14.17383 c 0,23.59992 32.6266,67.92183 48.0254,77.67578 76.2925,48.32542 136.6815,20.27749 186.5,-18.93555 42.4377,-34.69967 46.2054,-106.60502 25.7597,-161.94726 -32.2456,-80.69903 -108.9951,-115.46894 -151.6133,-53.44922 -13.8869,27.60216 -10.5359,63.54638 25.8829,78.18555 15.3935,6.18771 46.1754,-5.55973 45.4492,-25.32032 -0.4822,-13.12016 -9.6163,-22.20307 -23.8125,-18.08789 -4.1398,9.97886 13.9079,11.41349 -5.1914,17.6211 -13.4524,-1.98209 -19.9281,-13.53458 -14.418,-24.84766 14.6984,-30.17821 46.4978,-10.79781 55.6563,-3.86914 38.4657,29.10042 21.7314,84.86365 -16.9415,111.77539 -1.662,5.27178 -9.4628,28.78049 -17.6445,32.85156 -5.5028,2.73811 -18.7289,7.70359 -21.5,0.5 5.6681,-5.81657 13.1133,-11.36602 12.5195,-20.80859 -28.1463,7.60777 -61.8376,0.32527 -93.6367,-34.28906 C 511.0056,361.24451 507.6387,323.28009 519.453,292.30758 550.5897,214.74244 613.739,114.61357 524.0507,48.950157 485.1106,24.422157 431.1808,11.237176 386.0078,10.45211 V 23.692345 H 372.7206 Z M 248.26166,88.87789 H 379.3632 510.4667 V 102.165 H 478.5761 V 338.68063 H 453.7733 V 102.165 H 379.3632 248.26166 Z M 426.371,126.54 h 12.4023 v 41.9336 H 426.371 Z M 32.0683,379.75875 c 3.43524,0 6.19922,2.76398 6.19922,6.19922 v 17.7168 c 0,3.43523 -2.76398,6.20117 -6.19922,6.20117 -3.43524,0 -6.20117,-2.76594 -6.20117,-6.20117 v -17.7168 c 0,-3.43524 2.76593,-6.19922 6.20117,-6.19922 z m 694.5918,0 c 3.4352,0 6.2011,2.76398 6.2011,6.19922 v 17.7168 c 0,3.43523 -2.7659,6.20117 -6.2011,6.20117 -3.4353,0 -6.2012,-2.76594 -6.2012,-6.20117 v -17.7168 c 0,-3.43524 2.7659,-6.19922 6.2012,-6.19922 z M 99.39056,436.45016 c 3.43525,0 6.20118,2.76593 6.20118,6.20117 v 17.7168 c 0,3.43523 -2.76593,6.20117 -6.20118,6.20117 -3.43523,0 -6.20117,-2.76594 -6.20117,-6.20117 v -17.7168 c 0,-3.43524 2.76594,-6.20117 6.20117,-6.20117 z m 559.94524,0 c 3.4353,0 6.2012,2.76593 6.2012,6.20117 v 17.7168 c 0,3.43523 -2.7659,6.20117 -6.2012,6.20117 -3.4352,0 -6.1992,-2.76594 -6.1992,-6.20117 v -17.7168 c 0,-3.43524 2.764,-6.20117 6.1992,-6.20117 z"
       id="path4322-6-7"
       inkscape:connector-curvature="0" />
    <path
       style="fill:#ffd42a;fill-opacity:1;stroke:none;stroke-width:1;stroke-linecap:butt;stroke-linejoin:miter;stroke-miterlimit:4;stroke-dasharray:none;stroke-opacity:1"
       d="m 232.74802,654.91304 c -1.4717,-0.0122 -2.9336,-0.0107 -4.3848,0.004 v 13.27539 h 6.6446 v 78.47265 h 28.3457 v -13.28711 h 14.1738 v -74.38281 c -15.343,-2.59184 -30.5235,-3.96426 -44.7793,-4.08203 z"
       id="path4965"
       inkscape:connector-curvature="0" />
    <path
       style="fill:#ffd42a;fill-opacity:1;stroke:none;stroke-width:1;stroke-linecap:butt;stroke-linejoin:miter;stroke-miterlimit:4;stroke-dasharray:none;stroke-opacity:1"
       d="m 1392.3127,1049.1939 v -66.21877 h -46.5059 v -13.2871 h 57.5801 v -301.1817 h -57.5801 v -13.2871 h 31.8906 v -14.1738 c 0,-23.5999 -32.6265,-67.92182 -48.0253,-77.67582 -76.2925,-48.3254 -136.6815,-20.2774 -186.5,18.9356 -42.4377,34.69972 -46.2055,106.60502 -25.7598,161.94722 32.2456,80.6991 108.9951,115.469 151.6133,53.4493 13.8869,-27.6022 10.5359,-63.5464 -25.8828,-78.1856 -15.3936,-6.1877 -46.1755,5.5597 -45.4493,25.3203 0.4822,13.1202 9.6163,22.2031 23.8125,18.0879 4.1398,-9.9788 -13.9079,-11.4135 5.1914,-17.6211 13.4524,1.9821 19.9281,13.5346 14.418,24.8477 -14.6984,30.1782 -46.4977,10.7978 -55.6562,3.8691 -38.4658,-29.1004 -21.7314,-84.8636 16.9414,-111.7754 1.662,-5.2718 9.4628,-28.7804 17.6445,-32.8515 5.5028,-2.7381 18.7289,-7.7036 21.5,-0.5 -5.6681,5.8166 -13.1133,11.366 -12.5195,20.8086 28.1463,-7.6078 61.8376,-0.3253 93.6367,34.289 22.6056,26.6178 25.9725,64.5822 14.1582,95.5547 -31.1367,77.5651 -94.286,177.694 -4.5977,243.35737 17.6792,11.1359 38.452,19.928 60.0899,26.2911 z M 1129.6135,692.09423 c -3.4353,0 -6.2012,-2.7639 -6.2012,-6.1992 v -17.7168 c 0,-3.4352 2.7659,-6.2012 6.2012,-6.2012 3.4352,0 6.2011,2.766 6.2011,6.2012 v 17.7168 c 0,3.4353 -2.7659,6.1992 -6.2011,6.1992 z m 67.3242,-56.6913 c -3.4353,0 -6.2012,-2.766 -6.2012,-6.2012 v -17.71682 c 0,-3.4352 2.7659,-6.2012 6.2012,-6.2012 3.4352,0 6.1992,2.766 6.1992,6.2012 v 17.71682 c 0,3.4352 -2.764,6.2012 -6.1992,6.2012 z"
       id="path4322-6-6"
       inkscape:connector-curvature="0" />
    <path
       style="fill:#ffd42a;fill-opacity:1;stroke:none;stroke-width:1;stroke-miterlimit:4;stroke-dasharray:none;stroke-opacity:1"
       d="m 1576.7343,173.65914 v 13.28906 h -67.8535 v 40.74805 h -13.2871 v 17.71485 h 13.2871 v 40.74804 h 67.8535 v 13.28906 h 17.7168 v -13.28906 h 67.8535 V 245.4111 h 13.2891 v -17.71485 h -13.2891 V 186.9482 h -67.8535 v -13.28906 z"
       id="rect3091"
       inkscape:connector-curvature="0" />
    <text
       xml:space="preserve"
       style="font-style:normal;font-weight:normal;line-height:0%;font-family:sans-serif;letter-spacing:0px;word-spacing:0px;fill:#000000;fill-opacity:1;stroke:none;stroke-width:1;stroke-miterlimit:4;stroke-dasharray:none;stroke-opacity:1"
       x="1525.3782"
       y="224.77409"
       id="text3181"><tspan
         sodipodi:role="line"
         id="tspan3179"
         x="1525.3782"
         y="224.77409"
         style="font-size:37.5px;line-height:1.25;fill:#000000;stroke:none;stroke-width:1;stroke-miterlimit:4;stroke-dasharray:none;stroke-opacity:1">2mm </tspan><tspan
         sodipodi:role="line"
         x="1525.3782"
         y="271.64911"
         style="font-size:37.5px;line-height:1.25;fill:#000000;stroke:none;stroke-width:1;stroke-miterlimit:4;stroke-dasharray:none;stroke-opacity:1"
         id="tspan5794">acrylic</tspan></text>
    <rect
       style="fill:#ffd42a;fill-opacity:1;stroke:none;stroke-width:1;stroke-miterlimit:4;stroke-dasharray:none;stroke-opacity:1"
       id="rect3091-5"
       width="153.4252"
       height="99.212585"
       x="1493.5374"
       y="43.88092" />
    <text
       xml:space="preserve"
       style="font-style:normal;font-weight:normal;line-height:0%;font-family:sans-serif;letter-spacing:0px;word-spacing:0px;fill:#000000;fill-opacity:1;stroke:none;stroke-width:1;stroke-miterlimit:4;stroke-dasharray:none;stroke-opacity:1"
       x="1519.1183"
       y="101.96317"
       id="text3220"><tspan
         sodipodi:role="line"
         id="tspan3218"
         x="1519.1183"
         y="101.96317"
         style="font-size:37.5px;line-height:1.25;fill:#000000;stroke:none;stroke-width:1;stroke-miterlimit:4;stroke-dasharray:none;stroke-opacity:1">paper</tspan></text>
    <path
       style="opacity:1;fill:#ffd42a;fill-opacity:1;stroke:none;stroke-width:1;stroke-linecap:butt;stroke-linejoin:miter;stroke-miterlimit:4;stroke-dasharray:none;stroke-dashoffset:0;stroke-opacity:1"
       d="m 155.95793,40.636683 h -17.71679 v 13.2871 h -17.7168 v -13.2871 h -17.7168 v 81.140597 h 7.08789 v 17.7168 h -7.08789 v 81.1426 h 17.7168 v -13.2871 h 17.7168 v 13.2871 h 17.71679 v -83.35739 h -13.28711 v -13.2871 h 13.28711 V 40.636684 Z"
       id="rect5754-4-0"
       inkscape:connector-curvature="0" />
    <path
       inkscape:connector-curvature="0"
       style="opacity:1;fill:#ffd42a;fill-opacity:1;stroke:none;stroke-width:1;stroke-linecap:butt;stroke-linejoin:miter;stroke-miterlimit:4;stroke-dasharray:none;stroke-dashoffset:0;stroke-opacity:1"
       d="m 829.20008,816.23718 h -17.71679 v 13.2871 h -17.7168 v -13.2871 h -17.7168 v 81.14059 h 7.08789 v 17.7168 h -7.08789 v 81.1426 h 17.7168 v -13.2871 h 17.7168 v 13.2871 h 17.71679 v -83.3574 h -13.28711 v -13.2871 h 13.28711 z"
       id="rect5754-4-0-2" />
    <path
       style="fill:#ffd42a;fill-opacity:1;stroke:none;stroke-width:1;stroke-linecap:butt;stroke-linejoin:miter;stroke-miterlimit:4;stroke-dasharray:none;stroke-opacity:1"
       d="m 286.58194,426.48336 v 78.09375 H 401.6444 v 13.28711 h -17.7168 v 301.18164 h 17.7168 v 13.28711 h -31.8906 v 14.16992 c 0,23.59992 32.6246,67.92189 48.0234,77.67579 76.2925,48.3255 136.6835,20.2794 186.502,-18.9336 84.0847,-97.23439 3.5929,-186.32208 -42.8203,-221.50391 -24.6239,-18.66523 -31.6354,-56.10994 -2.4199,-82.32226 12.3489,-11.07942 45.2929,-10.56725 51.3691,8.25 4.0342,12.49385 -1.4439,24.15223 -16.1914,25.14062 -7.3032,-7.96117 9.1663,-15.48231 -10.9043,-14.7832 -11.9632,6.46353 -14.0979,19.53304 -5.0508,28.2793 24.1335,23.33108 47.3867,-5.75523 53.6231,-15.39844 35.2808,-54.55373 -40.0823,-120.34012 -103.334,-97.59961 -21.9716,7.8991 -42.4836,26.47878 -56.3867,59.92383 -12.1385,32.74423 -2.3161,69.5728 19.3789,94.63672 42.4127,47.31653 60.6044,44.30641 71.4804,85.02929 5.5292,20.70265 -2.7692,40.7291 -19.0117,53.56055 -2.8138,8.30433 -9.5643,26.1996 -16.6055,29.70313 -5.5027,2.7381 -18.7289,7.70359 -21.5,0.5 5.0801,-5.21299 11.5934,-10.21018 12.4629,-17.98829 -26.8085,6.31203 -61.4854,-2.17723 -93.58,-37.11328 -22.6056,-26.61776 -25.9745,-64.58413 -14.1602,-95.55664 31.1367,-77.56515 94.286,-177.69403 4.5977,-243.35742 C 378.9536,441.79745 329.67504,428.7933 286.58194,426.48336 Z M 617.8378,795.45797 c 3.4352,0 6.2012,2.76594 6.2012,6.20117 v 17.7168 c 0,3.43524 -2.766,6.19922 -6.2012,6.19922 -3.4352,0 -6.2012,-2.76398 -6.2012,-6.19922 v -17.7168 c 0,-3.43523 2.766,-6.20117 6.2012,-6.20117 z m -67.3223,56.69336 c 3.4353,0 6.1992,2.76594 6.1992,6.20117 v 17.71488 c 0,3.4352 -2.7639,6.2011 -6.1992,6.2011 -3.4352,0 -6.2011,-2.7659 -6.2011,-6.2011 V 858.3525 c 0,-3.43523 2.7659,-6.20117 6.2011,-6.20117 z"
       id="path4322-6-0-7"
       inkscape:connector-curvature="0" />
    <path
       inkscape:connector-curvature="0"
       style="fill:#ffd42a;fill-opacity:1;stroke:none;stroke-width:1;stroke-linecap:butt;stroke-linejoin:miter;stroke-miterlimit:4;stroke-dasharray:none;stroke-opacity:1"
       d="M 459.688,1049.1279 V 971.0341 H 344.6255 V 957.747 h 17.7168 V 656.56539 h -17.7168 v -13.2871 h 31.8906 v -14.1699 c 0,-23.5999 -32.6246,-67.9219 -48.0234,-77.6758 -76.2924,-48.3255 -136.6834,-20.2794 -186.5019,18.9336 -84.0847,97.2344 -3.5929,186.3221 42.8203,221.50391 24.6239,18.6652 31.6354,56.1099 2.4199,82.3222 -12.3489,11.0795 -45.2929,10.5673 -51.3691,-8.25 -4.0342,-12.4938 1.4439,-24.1522 16.1914,-25.1406 7.3032,7.9612 -9.1663,15.4823 10.9043,14.7832 11.9632,-6.4635 14.0979,-19.533 5.0508,-28.2793 -24.1335,-23.3311 -47.3867,5.7552 -53.6231,15.3985 -35.2808,54.5537 40.0823,120.3401 103.334,97.5996 21.9716,-7.8991 42.4836,-26.4788 56.3867,-59.9239 12.1384,-32.7442 2.3161,-69.5728 -19.3789,-94.6367 -42.4127,-47.31651 -60.6044,-44.30641 -71.4804,-85.02921 -5.5292,-20.7027 2.7692,-40.7291 19.0117,-53.5606 2.8138,-8.3043 9.5643,-26.1996 16.6055,-29.7031 5.5027,-2.7381 18.7289,-7.7036 21.5,-0.5 -5.0801,5.213 -11.5934,10.2102 -12.4629,17.9883 26.8085,-6.3121 61.4853,2.1772 93.5799,37.1132 22.6056,26.6178 25.9745,64.5842 14.1602,95.5567 -31.1367,77.56511 -94.2859,177.69401 -4.5977,243.35741 36.2729,22.848 85.5515,35.8521 128.6446,38.1621 z M 128.4322,680.15329 c -3.4352,0 -6.2012,-2.7659 -6.2012,-6.2012 v -17.7168 c 0,-3.4352 2.766,-6.1992 6.2012,-6.1992 3.4352,0 6.2012,2.764 6.2012,6.1992 v 17.7168 c 0,3.4353 -2.766,6.2012 -6.2012,6.2012 z m 67.3223,-56.6934 c -3.4353,0 -6.1992,-2.7659 -6.1992,-6.2011 v -17.7149 c 0,-3.4352 2.7639,-6.2011 6.1992,-6.2011 3.4352,0 6.2011,2.7659 6.2011,6.2011 v 17.7149 c 0,3.4352 -2.7659,6.2011 -6.2011,6.2011 z"
       id="path4322-6-0-7-6" />
    <path
       style="fill:#ffd42a;fill-opacity:1;stroke:none;stroke-width:1;stroke-linecap:butt;stroke-linejoin:miter;stroke-miterlimit:4;stroke-dasharray:none;stroke-opacity:1"
       d="m 195.1146,1043.6783 c 1.4717,0.012 2.9336,0.011 4.3847,0 v -13.2754 h -6.6425 V 965.21341 H 68.397798 V 951.9263 H 100.2864 V 901.94192 H 64.313798 v -13.28711 h -13.2871 v 13.28711 H 11.163407 c -3.5553997,36.985 4.748301,74.71787 43.650391,103.19918 39.5896,24.9371 94.678302,38.1603 140.300802,38.5371 z"
       id="path4256"
       inkscape:connector-curvature="0" />
    <path
       style="fill:#ffd42a;fill-opacity:1;stroke:none;stroke-width:1;stroke-linecap:butt;stroke-linejoin:miter;stroke-miterlimit:4;stroke-dasharray:none;stroke-opacity:1"
       d="M 840.60962,-2.2255965 V 11.061504 h 35.9726 V 136.47167 h -31.8886 v 13.2871 h 31.8886 v 14.1718 c 0,23.59991 -32.6246,67.92384 -48.0234,77.67784 -76.2925,48.3254 -136.6838,20.2774 -186.5019,-18.93563 -42.4387,-34.6997 -41.8305,-126.217006 -14.5079,-163.822276 10.0185,-13.7888 44.5574,-59.48570046 89.7266,-59.33400046 13.8273,0.046 28.6512,4.38980006 44.0723,15.25980046 18.2509,12.8646 12.1709,34.1323 1.4785,47.7578 -9.8747,12.58357 -29.3084,14.20875 -35.9512,13.543 -22.1984,-2.99071 -22.1227,-22.0478 -31.2812,-15.1191 -38.3934,29.04567 -25.1989,75.582566 10.2558,94.384766 3.4006,8.3311 8.1704,17.7991 13.0801,20.24211 5.5028,2.7381 18.7289,7.7036 21.5,0.5 -3.9525,-4.05611 -8.7692,-7.98161 -11.123,-13.18751 26.7464,3.7439 59.821,-6.6208 92.2402,-41.9101 22.6056,-26.617796 11.9387,-90.251466 -34.0879,-109.925766 h 39.8633 V -2.2255965 Z M 737.16042,25.024404 a 13.464566,13.464566 0 0 0 -13.4649,13.4648 13.464566,13.464566 0 0 0 13.4649,13.4629 13.464566,13.464566 0 0 0 13.4648,-13.4629 13.464566,13.464566 0 0 0 -13.4648,-13.4648 z m -86.3223,90.238266 c -2.1981,-0.0594 -4.3543,1.0582 -5.5352,3.1035 l -8.8574,15.3418 c -1.7176,2.975 -0.7054,6.7531 2.2696,8.4707 2.975,1.7176 6.753,0.7055 8.4707,-2.2695 l 8.8574,-15.3438 c 1.7176,-2.975 0.7054,-6.7511 -2.2696,-8.4687 -0.9296,-0.5368 -1.9364,-0.807 -2.9355,-0.834 z m 29.957,82.75781 c -2.198,-0.0594 -4.3543,1.0582 -5.5351,3.1035 l -8.8574,15.3438 c -1.7177,2.975 -0.7055,6.753 2.2695,8.4707 2.975,1.7176 6.7531,0.7054 8.4707,-2.2696 l 8.8574,-15.3437 c 1.7176,-2.975 0.7055,-6.7531 -2.2695,-8.4707 -0.9297,-0.5368 -1.9365,-0.807 -2.9356,-0.834 z"
       id="path4322-6-2"
       inkscape:connector-curvature="0" />
    <path
       style="opacity:1;fill:#ffd42a;fill-opacity:1;stroke:none;stroke-width:4;stroke-linecap:butt;stroke-linejoin:miter;stroke-miterlimit:4;stroke-dasharray:none;stroke-dashoffset:0;stroke-opacity:1"
       d="m 1013.518,726.19562 v 28.18909 h -13.2861 v -28.00964 a 159.44882,159.44882 0 0 0 -101.15848,41.91467 l 19.7956,19.79553 -9.3952,9.39697 -19.7332,-19.73327 a 159.44882,159.44882 0 0 0 -42.0795,101.09435 h 28.1122 v 13.28796 83.80005 a 159.44882,159.44882 0 0 0 14.0002,17.26135 l 19.7003,-19.70031 9.3952,9.39513 -19.7425,19.7443 a 159.44882,159.44882 0 0 0 101.10538,42.1454 v -28.1873 h 13.2861 v 28.0133 a 159.44882,159.44882 0 0 0 101.2006,-41.8762 l -19.8377,-19.8395 9.3952,-9.39513 19.7791,19.77904 a 159.44882,159.44882 0 0 0 13.9215,-17.71911 v -83.42102 -13.28796 h 28.0133 a 159.44882,159.44882 0 0 0 -41.8745,-101.20056 l -19.8394,19.83948 -9.3952,-9.39697 19.7791,-19.77905 a 159.44882,159.44882 0 0 0 -101.142,-42.1106 z m 7.0862,35.27527 h 18.6017 v 12.40173 h -18.6017 z m -78.55958,13.46191 8.769,8.76892 -13.1543,13.1543 -8.769,-8.77075 z m 175.35648,19.4458 13.1543,13.15247 -8.7708,8.76892 -13.1524,-13.15247 z m -75.0934,29.98718 h 56.6931 v 47.47925 h -56.6931 z m -127.55858,1.77063 h 51.3776 v 54.92249 h -51.3776 z m 63.7793,0 h 51.37758 v 54.92249 h -51.37758 z m -112.4451,26.98425 h 12.4018 v 18.60169 h -12.4018 z m 21.427,12.4347 h 13.2862 v 13.28796 h -13.2862 z m 225.44318,0 h 13.2861 v 13.28796 h -13.2861 z m 5.5352,33.66211 h 12.4018 v 18.60168 h -12.4018 z m -141.55878,12.57568 h 18.60168 v 9.74304 h -18.60168 z m -51.3483,6.73096 h 42.5208 v 24.80346 h -42.5208 z m 172.51828,4.76623 a 12.047244,12.047244 0 0 1 12.0465,12.04651 12.047244,12.047244 0 0 1 -12.0465,12.04834 12.047244,12.047244 0 0 1 -12.0465,-12.04834 12.047244,12.047244 0 0 1 12.0465,-12.04651 z m -47.8143,1.32935 a 10.718504,10.718504 0 0 1 10.719,10.71716 10.718504,10.718504 0 0 1 -10.719,10.71899 10.718504,10.718504 0 0 1 -10.7171,-10.71899 10.718504,10.718504 0 0 1 10.7171,-10.71716 z m -145.19528,16.9281 13.1525,13.15429 -8.769,8.76893 -13.1543,-13.15247 z m 171.00038,32.5708 8.7689,8.76891 -13.1543,13.1543 -8.7689,-8.76891 z m -101.54668,22.98339 h 18.6017 v 12.40172 h -18.6017 z"
       id="path4324-9"
       inkscape:connector-curvature="0" />
    <path
       style="opacity:1;fill:#ffd42a;fill-opacity:1;stroke:none;stroke-width:2.99378324;stroke-linecap:butt;stroke-linejoin:miter;stroke-miterlimit:4;stroke-dasharray:none;stroke-dashoffset:0;stroke-opacity:1"
       d="m 37.078853,516.03083 v 13.28796 h -17.71545 v 99.21203 h 17.71545 v 13.28797 h 17.71729 v -13.28797 h 17.71545 v -40.74828 h -7.08618 v -17.71545 h 7.08618 v -40.7483 h -17.71545 v -13.28796 z"
       id="rect5754-0-4"
       inkscape:connector-curvature="0" />
    <path
       style="opacity:1;fill:#ffd42a;fill-opacity:1;stroke:none;stroke-width:2.99378324;stroke-linecap:butt;stroke-linejoin:miter;stroke-miterlimit:4;stroke-dasharray:none;stroke-dashoffset:0;stroke-opacity:1"
       d="m 38.016353,668.8432 v 13.28796 h -17.71545 v 99.21203 h 17.71545 v 13.28797 h 17.717289 v -13.28797 h 17.71545 v -40.74828 h -7.08618 v -17.71545 h 7.08618 v -40.7483 H 55.733642 V 668.8432 Z"
       id="rect5754-0-4-7"
       inkscape:connector-curvature="0" />
    <path
       style="fill:#ffd42a;fill-opacity:1;stroke:none;stroke-width:1;stroke-linecap:butt;stroke-linejoin:miter;stroke-miterlimit:4;stroke-dasharray:none;stroke-opacity:1"
       d="m 810.86517,356.10277 h 78.09375 v -115.0625 h 13.28711 v 17.7168 h 301.18167 v -17.7168 h 13.2871 v 31.8906 h 14.1699 c 23.5999,0 67.9219,-32.6246 77.6758,-48.0234 C 1356.886,148.615 1328.8399,88.224 1289.6269,38.4055 c -97.2344,-84.0847 -186.3221,-3.5929 -221.5039,42.8203 -18.6652,24.6239 -56.11,31.6354 -82.32228,2.4199 -11.07942,-12.3489 -10.56725,-45.2929 8.25,-51.3691 12.49388,-4.0342 24.15218,1.4439 25.14058,16.1914 -7.9611,7.3032 -15.4823,-9.1663 -14.7832,10.9043 6.4636,11.9632 19.5331,14.0979 28.2793,5.0508 23.3311,-24.1335 -5.7552,-47.3867 -15.3984,-53.6231 -54.55373,-35.2808 -120.34012,40.0823 -97.59961,103.334 7.8991,21.9716 26.47877,42.4836 59.92383,56.3867 32.74418,12.1385 69.57278,2.3161 94.63668,-19.3789 47.3166,-42.4127 44.3065,-60.6044 85.0293,-71.4804 20.7027,-5.5292 40.7291,2.7692 53.5606,19.0117 8.3043,2.8138 26.1996,9.5643 29.7031,16.6055 2.7381,5.5027 7.7036,18.7289 0.5,21.5 -5.213,-5.0801 -10.2102,-11.5934 -17.9883,-12.4629 6.3121,26.8085 -2.1772,61.4854 -37.1133,93.57997 -26.6177,22.6056 -64.5841,25.9745 -95.5566,14.1602 -77.5652,-31.13667 -177.69403,-94.28597 -243.35742,-4.5977 -22.84802,36.2729 -35.85217,85.5515 -38.16211,128.6446 z M 1179.8398,24.8469 c 0,-3.4352 2.7659,-6.2012 6.2012,-6.2012 h 17.7168 c 3.4352,0 6.1992,2.766 6.1992,6.2012 0,3.4352 -2.764,6.2012 -6.1992,6.2012 h -17.7168 c -3.4353,0 -6.2012,-2.766 -6.2012,-6.2012 z m 56.6933,67.3223 c 0,-3.4353 2.766,-6.1992 6.2012,-6.1992 h 17.7149 c 3.4352,0 6.2011,2.7639 6.2011,6.1992 0,3.4352 -2.7659,6.2011 -6.2011,6.2011 h -17.7149 c -3.4352,0 -6.2012,-2.7659 -6.2012,-6.2011 z"
       id="path4322-6-0-7-9"
       inkscape:connector-curvature="0" />
    <path
       inkscape:connector-curvature="0"
       style="fill:#ffd42a;fill-opacity:1;stroke:none;stroke-width:1;stroke-linecap:butt;stroke-linejoin:miter;stroke-miterlimit:4;stroke-dasharray:none;stroke-opacity:1"
       d="m 1412.8848,181.1217 h -78.0939 v 115.06253 h -13.2871 V 278.4674 h -301.1816 v 17.71683 h -13.2871 V 264.2936 h -14.1699 c -23.5999,0 -67.9219,32.62464 -77.6758,48.02343 -48.3255,76.29241 -20.2794,136.6834 18.9336,186.5019 97.2344,84.0847 186.3221,3.5929 221.5039,-42.8203 18.6652,-24.62389 56.1099,-31.6354 82.3222,-2.4199 11.0795,12.3489 10.5673,45.2929 -8.25,51.3691 -12.4938,4.0342 -24.1522,-1.4439 -25.1406,-16.1914 7.9612,-7.3032 15.4823,9.1663 14.7832,-10.9043 -6.4635,-11.9632 -19.533,-14.0979 -28.2793,-5.0508 -23.3311,24.1335 5.7552,47.3867 15.3985,53.6231 54.5537,35.2808 120.3401,-40.0823 97.5996,-103.334 -7.8991,-21.97159 -26.4788,-42.48359 -59.9239,-56.38669 -32.7442,-12.1384 -69.5728,-2.3161 -94.6367,19.37889 -47.3165,42.41271 -44.3064,60.6044 -85.0292,71.4804 -20.7027,5.5292 -40.7291,-2.7692 -53.5606,-19.0117 -8.3043,-2.8138 -26.19961,-9.56429 -29.7031,-16.6055 -2.7381,-5.50269 -7.7036,-18.72889 -0.50001,-21.49999 5.21301,5.08009 10.2102,11.59339 17.9883,12.4629 -6.31209,-26.8085 2.17721,-61.4853 37.11321,-93.5799 26.6178,-22.6056 64.5842,-25.97451 95.5567,-14.16021 77.5651,31.1367 177.694,94.2859 243.3574,4.59771 22.8481,-36.27294 35.8522,-85.55154 38.1622,-128.64464 z m -368.9747,331.25583 c 0,3.4352 -2.7659,6.2012 -6.2012,6.2012 h -17.7168 c -3.4352,0 -6.1992,-2.766 -6.1992,-6.2012 0,-3.4352 2.764,-6.2012 6.1992,-6.2012 h 17.7168 c 3.4353,0 6.2012,2.766 6.2012,6.2012 z m -56.69341,-67.3223 c 0,3.4353 -2.76589,6.1992 -6.20109,6.1992 h -17.7149 c -3.4352,0 -6.2011,-2.7639 -6.2011,-6.1992 0,-3.4352 2.7659,-6.2011 6.2011,-6.2011 h 17.7149 c 3.4352,0 6.20109,2.7659 6.20109,6.2011 z"
       id="path4322-6-0-7-6-3" />
  </g>
</svg>
