<?xml version="1.0" encoding="UTF-8" standalone="no"?>
<!-- Created with Inkscape (http://www.inkscape.org/) -->

<svg
   xmlns:dc="http://purl.org/dc/elements/1.1/"
   xmlns:cc="http://creativecommons.org/ns#"
   xmlns:rdf="http://www.w3.org/1999/02/22-rdf-syntax-ns#"
   xmlns:svg="http://www.w3.org/2000/svg"
   xmlns="http://www.w3.org/2000/svg"
   xmlns:sodipodi="http://sodipodi.sourceforge.net/DTD/sodipodi-0.dtd"
   xmlns:inkscape="http://www.inkscape.org/namespaces/inkscape"
   width="500mm"
   height="300mm"
   viewBox="0 0 1771.6535 1062.9921"
   id="svg2"
   version="1.1"
   inkscape:version="0.91 r13725"
   sodipodi:docname="Outlines.svg"
   inkscape:export-filename="/Users/michaelkrzyzaniak/Documents/Dr_Squiggles/Software/Design_Files/3_point_75_mm/Outlines.png"
   inkscape:export-xdpi="199.9996"
   inkscape:export-ydpi="199.9996">
  <defs
     id="defs4" />
  <sodipodi:namedview
     id="base"
     pagecolor="#ffffff"
     bordercolor="#666666"
     borderopacity="1.0"
     inkscape:pageopacity="1"
     inkscape:pageshadow="2"
     inkscape:zoom="0.5"
     inkscape:cx="913.98509"
     inkscape:cy="570.6867"
     inkscape:document-units="mm"
     inkscape:current-layer="layer1"
     showgrid="false"
     inkscape:window-width="1655"
     inkscape:window-height="956"
     inkscape:window-x="16"
     inkscape:window-y="7"
     inkscape:window-maximized="0"
     inkscape:snap-bbox="true"
     inkscape:snap-bbox-midpoints="false"
     inkscape:snap-global="false"
     inkscape:bbox-paths="false"
     inkscape:bbox-nodes="false"
     inkscape:snap-bbox-edge-midpoints="true"
     inkscape:object-nodes="true"
     inkscape:snap-others="true"
     inkscape:snap-nodes="false"
     showguides="true"
     inkscape:snap-smooth-nodes="true"
     inkscape:snap-intersection-paths="true"
     inkscape:object-paths="true" />
  <metadata
     id="metadata7">
    <rdf:RDF>
      <cc:Work
         rdf:about="">
        <dc:format>image/svg+xml</dc:format>
        <dc:type
           rdf:resource="http://purl.org/dc/dcmitype/StillImage" />
        <dc:title></dc:title>
      </cc:Work>
    </rdf:RDF>
  </metadata>
  <g
     inkscape:label="Layer 1"
     inkscape:groupmode="layer"
     id="layer1"
     transform="translate(0,10.629921)">
    <path
       style="fill:#ffd42a;fill-opacity:1;stroke:none;stroke-width:1;stroke-miterlimit:4;stroke-dasharray:none;stroke-opacity:1"
       d="m 627.3359,1032.6845 0,-99.21286 13.2871,0 0,14.1738 15.0605,0 0,40.37696 0,11 46.9473,0 0,-11 16.832,0 0,11 46.9493,0 0,-11 14.6152,0 0,23.4023 56.6933,0 0,-23.4023 0,-40.37696 15.0586,0 0,-14.1738 13.2871,0 0,99.21286 -238.7304,0 z"
       id="rect1833-0"
       inkscape:connector-curvature="0" />
    <path
       style="opacity:1;fill:#ffd42a;fill-opacity:1;stroke:none;stroke-width:1;stroke-linecap:butt;stroke-linejoin:miter;stroke-miterlimit:4;stroke-dasharray:none;stroke-dashoffset:0;stroke-opacity:1"
       d="m 1178.6445,-4.8565 0,28.1172 -13.2891,0 0,-27.9941 A 159.44882,159.44882 0 0 0 1064.289,37.2549 l 19.7051,19.707 -9.3946,9.3945 -19.7246,-19.7226 a 159.44882,159.44882 0 0 0 -13.9765,17.2851 l 0,83.7988 0,13.2891 -27.9981,0 a 159.44882,159.44882 0 0 0 41.9375,101.1211 l 19.7617,-19.7598 9.3946,9.3946 -19.7832,19.7851 a 159.44882,159.44882 0 0 0 101.1445,42.0274 l 0,-28.1114 13.2891,0 0,27.9981 a 159.44882,159.44882 0 0 0 101.1211,-41.9375 l -19.7598,-19.7617 9.3945,-9.3946 19.7852,19.7832 a 159.44882,159.44882 0 0 0 42.0273,-101.1445 l -28.1113,0 0,-13.2891 0,-83.7988 A 159.44882,159.44882 0 0 0 1289.0917,46.667 l -19.6914,19.6894 -9.3945,-9.3945 19.7266,-19.7285 A 159.44882,159.44882 0 0 0 1178.6445,-4.8565 Z m -29.6758,74.6231 46.0625,0 0,35.4316 -46.0625,0 0,-35.4316 z m 16.3867,49.6054 13.2891,0 0,28.3457 -13.2891,0 0,-28.3457 z"
       id="path4324-9-2"
       inkscape:connector-curvature="0" />
    <path
       style="opacity:1;fill:#ffd42a;fill-opacity:1;stroke:none;stroke-width:1;stroke-linecap:butt;stroke-linejoin:miter;stroke-miterlimit:4;stroke-dasharray:none;stroke-dashoffset:0;stroke-opacity:1"
       d="m 868.5312,2.122 0,28.1094 -13.2871,0 0,-28.0039 A 159.44882,159.44882 0 0 0 754.0468,44.0986 l 19.836,19.834 -9.3965,9.3965 -19.8067,-19.8086 a 159.44882,159.44882 0 0 0 -42.084,101.1699 l 28.1895,0 0,13.2871 0,83.4004 a 159.44882,159.44882 0 0 0 14.1562,17.5078 l 19.545,-19.5469 9.3965,9.3965 -19.5938,19.5918 a 159.44882,159.44882 0 0 0 100.9551,42.2207 l 0,-28.1113 13.2871,0 0,27.9883 a 159.44882,159.44882 0 0 0 101.0215,-42.0313 l -19.6602,-19.6582 9.3965,-9.3965 19.6738,19.6739 a 159.44882,159.44882 0 0 0 14.0274,-17.3789 l 0,-83.6563 0,-13.2871 27.9961,0 A 159.44882,159.44882 0 0 0 979.0488,53.5673 L 959.289,73.3291 949.8925,63.9326 969.6777,44.1494 A 159.44882,159.44882 0 0 0 868.5312,2.122 Z m 7.0859,35.1953 18.6016,0 0,12.4024 -18.6016,0 0,-12.4024 z m -78.5605,13.4629 8.7695,8.7676 -13.1543,13.1543 -8.7676,-8.7695 13.1524,-13.1524 z m 175.3574,19.4453 13.1524,13.1524 -8.7696,8.7695 -13.1523,-13.1543 8.7695,-8.7676 z m -75.0937,29.9864 56.6933,0 0,47.4805 -56.6933,0 0,-47.4805 z m -127.5586,1.7715 51.3769,0 0,54.9218 -51.3769,0 0,-54.9218 z m 63.7793,0 51.3789,0 0,54.9218 -51.3789,0 0,-54.9218 z m -112.4454,26.9843 12.4004,0 0,18.6016 -12.4004,0 0,-18.6016 z m 21.4258,12.4356 13.2891,0 0,13.2871 -13.2891,0 0,-13.2871 z m 225.4434,0 13.2871,0 0,13.2871 -13.2871,0 0,-13.2871 z m 5.5371,33.6601 12.4023,0 0,18.6016 -12.4023,0 0,-18.6016 z m -107.8105,10.7012 18.6035,0 0,9.7442 -18.6035,0 0,-9.7442 z m -51.3477,8.6074 42.5195,0 0,24.8028 -42.5195,0 0,-24.8028 z m 138.7695,4.7657 a 12.047244,12.047244 0 0 1 12.0469,12.0468 12.047244,12.047244 0 0 1 -12.0469,12.0469 12.047244,12.047244 0 0 1 -12.0488,-12.0469 12.047244,12.047244 0 0 1 12.0488,-12.0468 z m -47.8144,1.3281 a 10.718504,10.718504 0 0 1 10.7187,10.7187 10.718504,10.718504 0 0 1 -10.7187,10.7188 10.718504,10.718504 0 0 1 -10.7188,-10.7188 10.718504,10.718504 0 0 1 10.7188,-10.7187 z m -145.1973,16.9297 13.1543,13.1523 -8.7695,8.7696 -13.1543,-13.1524 8.7695,-8.7695 z m 171,32.5703 8.7695,8.7695 -13.1523,13.1524 -8.7695,-8.7676 13.1523,-13.1543 z m -101.5449,22.9824 18.6015,0 0,12.4024 -18.6015,0 0,-12.4024 z"
       id="path4324-9"
       inkscape:connector-curvature="0" />
    <path
       style="fill:#ffd42a;fill-opacity:1;stroke:none;stroke-width:1;stroke-linecap:butt;stroke-linejoin:miter;stroke-miterlimit:4;stroke-dasharray:none;stroke-opacity:1"
       d="m 389.5956,8.575157 c -45.17332,0.784643 -99.1022,13.971626 -138.04293,38.5 -89.6883,65.663413 -26.53904,165.792283 4.59766,243.357423 11.8143,30.97251 8.44544,68.93693 -14.16016,95.55469 -31.7982,34.61339 -65.48887,41.89776 -93.63476,34.29101 -0.59261,9.4414 6.84991,14.99047 12.51758,20.80664 -2.7711,7.20359 -15.9972,2.23811 -21.5,-0.5 -8.18164,-4.07105 -15.98046,-27.57959 -17.64258,-32.85156 -38.67373,-26.91139 -55.40954,-82.67464 -16.94336,-111.77539 9.1585,-6.92867 40.95785,-26.30907 55.65625,3.86914 5.5101,11.31308 -0.96557,22.86557 -14.41797,24.84766 -19.0993,-6.20761 -1.05161,-7.64224 -5.19141,-17.6211 -14.1962,-4.11518 -23.3303,4.96773 -23.8125,18.08789 -0.7262,19.76059 30.05572,31.50803 45.44922,25.32032 36.4188,-14.63917 39.76972,-50.58339 25.88282,-78.18555 -42.6182,-62.01972 -119.36573,-27.24981 -151.61133,53.44922 -20.4457,55.34224 -16.67989,127.24759 25.75781,161.94726 49.8185,39.21304 110.20945,67.26097 186.50195,18.93555 15.3988,-9.75395 48.02344,-54.07586 48.02344,-77.67578 l 0,-14.17383 -31.88867,0 0,-13.28711 131.10154,0 131.1035,0 0,13.28711 -31.8906,0 0,14.17383 c 0,23.59992 32.6266,67.92183 48.0254,77.67578 76.2925,48.32542 136.6815,20.27749 186.5,-18.93555 42.4377,-34.69967 46.2054,-106.60502 25.7597,-161.94726 -32.2456,-80.69903 -108.9951,-115.46894 -151.6133,-53.44922 -13.8869,27.60216 -10.5359,63.54638 25.8829,78.18555 15.3935,6.18771 46.1754,-5.55973 45.4492,-25.32032 -0.4822,-13.12016 -9.6163,-22.20307 -23.8125,-18.08789 -4.1398,9.97886 13.9079,11.41349 -5.1914,17.6211 -13.4524,-1.98209 -19.9281,-13.53458 -14.418,-24.84766 14.6984,-30.17821 46.4978,-10.79781 55.6563,-3.86914 38.4657,29.10042 21.7314,84.86365 -16.9415,111.77539 -1.662,5.27178 -9.4628,28.78049 -17.6445,32.85156 -5.5028,2.73811 -18.7289,7.70359 -21.5,0.5 5.6681,-5.81657 13.1133,-11.36602 12.5195,-20.80859 -28.1463,7.60777 -61.8376,0.32527 -93.6367,-34.28906 C 527.8806,359.36951 524.5137,321.40509 536.328,290.43258 567.4647,212.86744 630.614,112.73857 540.9257,47.075157 501.9856,22.547157 448.0558,9.362176 402.8828,8.57711 l 0,13.240235 -13.2872,0 0,-13.242188 z m -124.45894,78.427732 131.10154,0 131.1035,0 0,13.287111 -31.8906,0 0,236.51563 -24.8028,0 0,-236.51563 -74.4101,0 -131.10154,0 0,-13.287111 z M 443.246,124.665 l 12.4023,0 0,41.9336 -12.4023,0 0,-41.9336 z M 48.9433,377.88375 c 3.43524,0 6.19922,2.76398 6.19922,6.19922 l 0,17.7168 c 0,3.43523 -2.76398,6.20117 -6.19922,6.20117 -3.43524,0 -6.20117,-2.76594 -6.20117,-6.20117 l 0,-17.7168 c 0,-3.43524 2.76593,-6.19922 6.20117,-6.19922 z m 694.5918,0 c 3.4352,0 6.2011,2.76398 6.2011,6.19922 l 0,17.7168 c 0,3.43523 -2.7659,6.20117 -6.2011,6.20117 -3.4353,0 -6.2012,-2.76594 -6.2012,-6.20117 l 0,-17.7168 c 0,-3.43524 2.7659,-6.19922 6.2012,-6.19922 z m -627.26954,56.69141 c 3.43525,0 6.20118,2.76593 6.20118,6.20117 l 0,17.7168 c 0,3.43523 -2.76593,6.20117 -6.20118,6.20117 -3.43523,0 -6.20117,-2.76594 -6.20117,-6.20117 l 0,-17.7168 c 0,-3.43524 2.76594,-6.20117 6.20117,-6.20117 z m 559.94524,0 c 3.4353,0 6.2012,2.76593 6.2012,6.20117 l 0,17.7168 c 0,3.43523 -2.7659,6.20117 -6.2012,6.20117 -3.4352,0 -6.1992,-2.76594 -6.1992,-6.20117 l 0,-17.7168 c 0,-3.43524 2.764,-6.20117 6.1992,-6.20117 z"
       id="path4322-6-7"
       inkscape:connector-curvature="0" />
    <path
       style="fill:#ffd42a;fill-opacity:1;stroke:none;stroke-width:1;stroke-linecap:butt;stroke-linejoin:miter;stroke-miterlimit:4;stroke-dasharray:none;stroke-opacity:1"
       d="m 1001.498,289.28805 c -1.4717,-0.0122 -2.9336,-0.0107 -4.3848,0.004 l 0,13.27539 6.6446,0 0,78.47265 28.3457,0 0,-13.28711 14.1738,0 0,-74.38281 c -15.343,-2.59184 -30.5235,-3.96426 -44.7793,-4.08203 z"
       id="path4965"
       inkscape:connector-curvature="0" />
    <path
       style="fill:#ffd42a;fill-opacity:1;stroke:none;stroke-width:1;stroke-linecap:butt;stroke-linejoin:miter;stroke-miterlimit:4;stroke-dasharray:none;stroke-opacity:1"
       d="m 1733.5627,511.53414 0,66.21875 -46.5059,0 0,13.28711 57.5801,0 0,301.18164 -57.5801,0 0,13.28711 31.8906,0 0,14.17383 c 0,23.59992 -32.6265,67.9218 -48.0253,77.6758 -76.2925,48.32542 -136.6815,20.27742 -186.5,-18.93557 -42.4377,-34.69967 -46.2055,-106.60502 -25.7598,-161.94726 32.2456,-80.69903 108.9951,-115.46894 151.6133,-53.44922 13.8869,27.60216 10.5359,63.54638 -25.8828,78.18555 -15.3936,6.18771 -46.1755,-5.55973 -45.4493,-25.32032 0.4822,-13.12016 9.6163,-22.20307 23.8125,-18.08789 4.1398,9.97886 -13.9079,11.41349 5.1914,17.6211 13.4524,-1.98209 19.9281,-13.53458 14.418,-24.84766 -14.6984,-30.17821 -46.4977,-10.79781 -55.6562,-3.86914 -38.4658,29.10042 -21.7314,84.86365 16.9414,111.77539 1.662,5.27178 9.4628,28.78049 17.6445,32.85156 5.5028,2.73811 18.7289,7.70359 21.5,0.5 -5.6681,-5.81657 -13.1133,-11.36602 -12.5195,-20.80859 28.1463,7.60777 61.8376,0.32527 93.6367,-34.28906 22.6056,-26.61776 25.9725,-64.58218 14.1582,-95.55469 -31.1367,-77.56514 -94.286,-177.69401 -4.5977,-243.35742 17.6792,-11.13591 38.452,-19.92784 60.0899,-26.29102 z m -262.6992,357.09961 c -3.4353,0 -6.2012,2.76398 -6.2012,6.19922 l 0,17.7168 c 0,3.43523 2.7659,6.20117 6.2012,6.20117 3.4352,0 6.2011,-2.76594 6.2011,-6.20117 l 0,-17.7168 c 0,-3.43524 -2.7659,-6.19922 -6.2011,-6.19922 z m 67.3242,56.69141 c -3.4353,0 -6.2012,2.76593 -6.2012,6.20117 l 0,17.7168 c 0,3.43523 2.7659,6.20117 6.2012,6.20117 3.4352,0 6.1992,-2.76594 6.1992,-6.20117 l 0,-17.7168 c 0,-3.43524 -2.764,-6.20117 -6.1992,-6.20117 z"
       id="path4322-6-6"
       inkscape:connector-curvature="0" />
    <path
       style="fill:#ffd42a;fill-opacity:1;stroke:none;stroke-width:1;stroke-miterlimit:4;stroke-dasharray:none;stroke-opacity:1"
       d="m 1576.7343,173.65914 0,13.28906 -67.8535,0 0,40.74805 -13.2871,0 0,17.71485 13.2871,0 0,40.74804 67.8535,0 0,13.28906 17.7168,0 0,-13.28906 67.8535,0 0,-40.74804 13.2891,0 0,-17.71485 -13.2891,0 0,-40.74805 -67.8535,0 0,-13.28906 -17.7168,0 z"
       id="rect3091"
       inkscape:connector-curvature="0" />
    <text
       xml:space="preserve"
       style="font-style:normal;font-weight:normal;font-size:37.5px;line-height:1.25;font-family:sans-serif;letter-spacing:0px;word-spacing:0px;fill:#000000;fill-opacity:1;stroke:none;stroke-width:1;stroke-miterlimit:4;stroke-dasharray:none;stroke-opacity:1"
       x="1525.3782"
       y="224.77409"
       id="text3181"><tspan
         sodipodi:role="line"
         id="tspan3179"
         x="1525.3782"
         y="224.77409"
         style="fill:#000000;stroke:none;stroke-width:1;stroke-miterlimit:4;stroke-dasharray:none;stroke-opacity:1">2mm </tspan><tspan
         sodipodi:role="line"
         x="1525.3782"
         y="271.64911"
         style="fill:#000000;stroke:none;stroke-width:1;stroke-miterlimit:4;stroke-dasharray:none;stroke-opacity:1"
         id="tspan5794">acrylic</tspan></text>
    <rect
       style="fill:#ffd42a;fill-opacity:1;stroke:none;stroke-width:1;stroke-miterlimit:4;stroke-dasharray:none;stroke-opacity:1"
       id="rect3091-5"
       width="153.4252"
       height="99.212585"
       x="1493.5374"
       y="43.88092" />
    <text
       xml:space="preserve"
       style="font-style:normal;font-weight:normal;font-size:37.5px;line-height:1.25;font-family:sans-serif;letter-spacing:0px;word-spacing:0px;fill:#000000;fill-opacity:1;stroke:none;stroke-width:1;stroke-miterlimit:4;stroke-dasharray:none;stroke-opacity:1"
       x="1519.1183"
       y="101.96317"
       id="text3220"><tspan
         sodipodi:role="line"
         id="tspan3218"
         x="1519.1183"
         y="101.96317"
         style="fill:#000000;stroke:none;stroke-width:1;stroke-miterlimit:4;stroke-dasharray:none;stroke-opacity:1">paper</tspan></text>
    <path
       style="opacity:1;fill:#ffd42a;fill-opacity:1;stroke:none;stroke-width:1;stroke-linecap:butt;stroke-linejoin:miter;stroke-miterlimit:4;stroke-dasharray:none;stroke-dashoffset:0;stroke-opacity:1"
       d="m 79.08293,18.136683 -17.71679,0 0,13.2871 -17.7168,0 0,-13.2871 -17.716795,0 0,81.140601 7.08789,0 0,17.716796 -7.08789,0 0,81.1426 17.716795,0 0,-13.2871 17.7168,0 0,13.2871 17.71679,0 0,-83.35739 -13.28711,0 0,-13.2871 13.28711,0 0,-83.355506 z"
       id="rect5754-4-0"
       inkscape:connector-curvature="0" />
    <path
       style="opacity:1;fill:#ffd42a;fill-opacity:1;stroke:none;stroke-width:1;stroke-linecap:butt;stroke-linejoin:miter;stroke-miterlimit:4;stroke-dasharray:none;stroke-dashoffset:0;stroke-opacity:1"
       d="m 16.42762,721.96572 13.28906,0 0,60.1485 0,32.0781 17.71484,0 0,-32.0781 63.78125,0 0,32.0781 17.71485,0 0,-32.0781 0,-60.1485 13.28906,0 0,-17.7167 -13.28906,0 0,-17.7168 -40.74805,0 0,7.0859 -17.71484,0 0,-7.0859 -40.74805,0 0,17.7168 -13.28906,0 0,17.7167 z"
       id="rect5754-0-4-5"
       inkscape:connector-curvature="0" />
    <path
       inkscape:connector-curvature="0"
       style="opacity:1;fill:#ffd42a;fill-opacity:1;stroke:none;stroke-width:1;stroke-linecap:butt;stroke-linejoin:miter;stroke-miterlimit:4;stroke-dasharray:none;stroke-dashoffset:0;stroke-opacity:1"
       d="m 141.89448,570.96565 -13.28906,0 0,60.1485 0,32.0781 -17.71484,0 0,-32.0781 -63.781245,0 0,32.0781 -17.71486,0 0,-32.0781 0,-60.1485 -13.28906,0 0,-17.71669 13.28906,0 0,-17.71681 40.74806,0 0,7.08591 17.714835,0 0,-7.08591 40.74805,0 0,17.71681 13.28906,0 0,17.71669 z"
       id="rect5754-0-4-5-1" />
    <path
       inkscape:connector-curvature="0"
       style="opacity:1;fill:#ffd42a;fill-opacity:1;stroke:none;stroke-width:1;stroke-linecap:butt;stroke-linejoin:miter;stroke-miterlimit:4;stroke-dasharray:none;stroke-dashoffset:0;stroke-opacity:1"
       d="m 148.5751,19.362205 -17.71679,0 0,13.2871 -17.7168,0 0,-13.2871 -17.7168,0 0,81.140595 7.08789,0 0,17.7168 -7.08789,0 0,81.1426 17.7168,0 0,-13.2871 17.7168,0 0,13.2871 17.71679,0 0,-83.3574 -13.28711,0 0,-13.2871 13.28711,0 0,-83.355495 z"
       id="rect5754-4-0-2" />
    <path
       style="fill:#ffd42a;fill-opacity:1;stroke:none;stroke-width:1;stroke-linecap:butt;stroke-linejoin:miter;stroke-miterlimit:4;stroke-dasharray:none;stroke-opacity:1"
       d="m 329.70694,433.98336 0,78.09375 115.06246,0 0,13.28711 -17.7168,0 0,301.18164 17.7168,0 0,13.28711 -31.8906,0 0,14.16992 c 0,23.59992 32.6246,67.92189 48.0234,77.67579 76.2925,48.3255 136.6835,20.2794 186.502,-18.9336 84.0847,-97.23439 3.5929,-186.32208 -42.8203,-221.50391 -24.6239,-18.66523 -31.6354,-56.10994 -2.4199,-82.32226 12.3489,-11.07942 45.2929,-10.56725 51.3691,8.25 4.0342,12.49385 -1.4439,24.15223 -16.1914,25.14062 -7.3032,-7.96117 9.1663,-15.48231 -10.9043,-14.7832 -11.9632,6.46353 -14.0979,19.53304 -5.0508,28.2793 24.1335,23.33108 47.3867,-5.75523 53.6231,-15.39844 35.2808,-54.55373 -40.0823,-120.34012 -103.334,-97.59961 -21.9716,7.8991 -42.4836,26.47878 -56.3867,59.92383 -12.1385,32.74423 -2.3161,69.5728 19.3789,94.63672 42.4127,47.31653 60.6044,44.30641 71.4804,85.02929 5.5292,20.70265 -2.7692,40.7291 -19.0117,53.56055 -2.8138,8.30433 -9.5643,26.1996 -16.6055,29.70313 -5.5027,2.7381 -18.7289,7.70359 -21.5,0.5 5.0801,-5.21299 11.5934,-10.21018 12.4629,-17.98829 -26.8085,6.31203 -61.4854,-2.17723 -93.58,-37.11328 -22.6056,-26.61776 -25.9745,-64.58413 -14.1602,-95.55664 31.1367,-77.56515 94.286,-177.69403 4.5977,-243.35742 C 422.0786,449.29745 372.80004,436.2933 329.70694,433.98336 Z M 660.9628,802.95797 c 3.4352,0 6.2012,2.76594 6.2012,6.20117 l 0,17.7168 c 0,3.43524 -2.766,6.19922 -6.2012,6.19922 -3.4352,0 -6.2012,-2.76398 -6.2012,-6.19922 l 0,-17.7168 c 0,-3.43523 2.766,-6.20117 6.2012,-6.20117 z m -67.3223,56.69336 c 3.4353,0 6.1992,2.76594 6.1992,6.20117 l 0,17.71488 c 0,3.4352 -2.7639,6.2011 -6.1992,6.2011 -3.4352,0 -6.2011,-2.7659 -6.2011,-6.2011 l 0,-17.71488 c 0,-3.43523 2.7659,-6.20117 6.2011,-6.20117 z"
       id="path4322-6-0-7"
       inkscape:connector-curvature="0" />
    <path
       inkscape:connector-curvature="0"
       style="fill:#ffd42a;fill-opacity:1;stroke:none;stroke-width:1;stroke-linecap:butt;stroke-linejoin:miter;stroke-miterlimit:4;stroke-dasharray:none;stroke-opacity:1"
       d="m 497.188,1036.0029 0,-78.0938 -115.0625,0 0,-13.2871 17.7168,0 0,-301.18161 -17.7168,0 0,-13.2871 31.8906,0 0,-14.1699 c 0,-23.5999 -32.6246,-67.9219 -48.0234,-77.6758 -76.2924,-48.3255 -136.6834,-20.2794 -186.5019,18.9336 -84.0847,97.2344 -3.5929,186.3221 42.8203,221.50391 24.6239,18.6652 31.6354,56.1099 2.4199,82.3222 -12.3489,11.0795 -45.2929,10.5673 -51.3691,-8.25 -4.0342,-12.4938 1.4439,-24.1522 16.1914,-25.1406 7.3032,7.9612 -9.1663,15.4823 10.9043,14.7832 11.9632,-6.4635 14.0979,-19.533 5.0508,-28.2793 -24.1335,-23.3311 -47.3867,5.7552 -53.6231,15.3985 -35.2808,54.5537 40.0823,120.3401 103.334,97.5996 21.9716,-7.8991 42.4836,-26.4788 56.3867,-59.9239 12.1384,-32.7442 2.3161,-69.5728 -19.3789,-94.6367 -42.4127,-47.31651 -60.6044,-44.30641 -71.4804,-85.02921 -5.5292,-20.7027 2.7692,-40.7291 19.0117,-53.5606 2.8138,-8.3043 9.5643,-26.1996 16.6055,-29.7031 5.5027,-2.7381 18.7289,-7.7036 21.5,-0.5 -5.0801,5.213 -11.5934,10.2102 -12.4629,17.9883 26.8085,-6.3121 61.4853,2.1772 93.5799,37.1132 22.6056,26.6178 25.9745,64.5842 14.1602,95.5567 -31.1367,77.56511 -94.2859,177.69401 -4.5977,243.35741 36.2729,22.848 85.5515,35.8521 128.6446,38.1621 z M 165.9322,667.02829 c -3.4352,0 -6.2012,-2.7659 -6.2012,-6.2012 l 0,-17.7168 c 0,-3.4352 2.766,-6.1992 6.2012,-6.1992 3.4352,0 6.2012,2.764 6.2012,6.1992 l 0,17.7168 c 0,3.4353 -2.766,6.2012 -6.2012,6.2012 z m 67.3223,-56.6934 c -3.4353,0 -6.1992,-2.7659 -6.1992,-6.2011 l 0,-17.7149 c 0,-3.4352 2.7639,-6.2011 6.1992,-6.2011 3.4352,0 6.2011,2.7659 6.2011,6.2011 l 0,17.7149 c 0,3.4352 -2.7659,6.2011 -6.2011,6.2011 z"
       id="path4322-6-0-7-6" />
    <path
       style="fill:#ffd42a;fill-opacity:1;stroke:none;stroke-width:1;stroke-linecap:butt;stroke-linejoin:miter;stroke-miterlimit:4;stroke-dasharray:none;stroke-opacity:1"
       d="m 954.8319,482.23336 0,78.09375 115.0625,0 0,13.28711 -56.5527,0 0,301.18168 56.5527,0 0,13.2871 -31.8906,0 0,14.1699 c 0,23.5999 32.6246,67.9218 48.0234,77.6758 76.2925,48.3254 136.6835,20.2794 186.502,-18.9336 84.0847,-97.2344 3.5929,-186.32209 -42.8203,-221.50393 -24.6239,-18.66523 -31.6354,-56.10995 -2.4199,-82.32226 12.3489,-11.07942 45.2929,-10.56726 51.3691,8.25 4.0342,12.49384 -1.4439,24.15224 -16.1914,25.14062 -7.3032,-7.96117 9.1663,-15.4823 -10.9043,-14.7832 -11.9632,6.46354 -14.0979,19.53305 -5.0508,28.2793 24.1335,23.33109 47.3867,-5.75523 53.6231,-15.39844 35.2808,-54.55374 -40.0823,-120.34011 -103.334,-97.59961 -21.9716,7.8991 -42.4836,26.47882 -56.3867,59.92383 -12.1385,32.74423 -2.3161,69.57281 19.3789,94.63672 42.4127,47.31657 60.6044,44.30637 71.4804,85.02927 5.5292,20.7027 -2.7692,40.7291 -19.0117,53.5606 -2.8138,8.3043 -9.5644,26.1996 -16.6055,29.7031 -5.5027,2.7381 -18.7289,7.7036 -21.5,0.5 5.08,-5.213 11.5934,-10.2102 12.4629,-17.9883 -26.8085,6.3121 -61.4854,-2.1772 -93.58,-37.1133 -22.6056,-26.6177 -25.9745,-64.5841 -14.1602,-95.55661 31.1367,-77.56514 94.286,-177.69402 4.5977,-243.35742 -36.2729,-22.84802 -85.5515,-35.85217 -128.6446,-38.16211 z m 76.4102,154.64258 32.0762,0 0,17.7168 -32.0762,0 0,-17.7168 z m 0,81.49609 32.0762,0 0,17.7168 -32.0762,0 0,-17.7168 z M 1286.0878,851.208 c 3.4352,0 6.2012,2.7659 6.2012,6.2011 l 0,17.7168 c 0,3.4353 -2.766,6.1993 -6.2012,6.1993 -3.4352,0 -6.2012,-2.764 -6.2012,-6.1993 l 0,-17.7168 c 0,-3.4352 2.766,-6.2011 6.2012,-6.2011 z m -67.3223,56.6933 c 3.4353,0 6.1992,2.766 6.1992,6.2012 l 0,17.7148 c 0,3.4353 -2.7639,6.2012 -6.1992,6.2012 -3.4352,0 -6.2011,-2.7659 -6.2011,-6.2012 l 0,-17.7148 c 0,-3.4352 2.7659,-6.2012 6.2011,-6.2012 z"
       id="path4322-6-0-8-6"
       inkscape:connector-curvature="0" />
    <path
       style="fill:#ffd42a;fill-opacity:1;stroke:none;stroke-width:1;stroke-linecap:butt;stroke-linejoin:miter;stroke-miterlimit:4;stroke-dasharray:none;stroke-opacity:1"
       d="m 1043.1881,1020.0029 0,-78.0938 -115.0625,0 0,-13.2871 56.5527,0 0,-301.18157 -56.5527,0 0,-13.2871 31.8906,0 0,-14.17 c 0,-23.5999 -32.6246,-67.9217 -48.0234,-77.6757 -76.2925,-48.3255 -136.6835,-20.2795 -186.502,18.9336 -84.0847,97.2343 -3.5929,186.322 42.8203,221.50387 24.6239,18.6652 31.6354,56.1099 2.4199,82.3222 -12.3489,11.0794 -45.2929,10.5673 -51.3691,-8.25 -4.0342,-12.4938 1.4439,-24.1522 16.1914,-25.1406 7.3032,7.9612 -9.1663,15.4823 10.9043,14.7832 11.9632,-6.4635 14.0979,-19.533 5.0508,-28.2793 -24.1335,-23.3311 -47.3867,5.7552 -53.6231,15.3984 -35.2808,54.5538 40.0823,120.3402 103.334,97.5997 21.9716,-7.8991 42.4836,-26.4789 56.3867,-59.9239 12.1385,-32.7442 2.3161,-69.5728 -19.3789,-94.6367 -42.4127,-47.31647 -60.6044,-44.30637 -71.4804,-85.02927 -5.5292,-20.7026 2.7692,-40.7291 19.0117,-53.5605 2.8138,-8.3044 9.5644,-26.1996 16.6055,-29.7032 5.5027,-2.7381 18.7289,-7.7036 21.5,-0.5 -5.08,5.213 -11.5934,10.2102 -12.4629,17.9883 26.8085,-6.312 61.4854,2.1772 93.58,37.1133 22.6056,26.6178 25.9745,64.5841 14.1602,95.5566 -31.1367,77.56517 -94.286,177.69407 -4.5977,243.35747 36.2729,22.848 85.5515,35.8521 128.6446,38.1621 z m -76.4102,-154.6426 -32.0762,0 0,-17.7168 32.0762,0 0,17.7168 z m 0,-81.4961 -32.0762,0 0,-17.7168 32.0762,0 0,17.7168 z M 711.9322,651.02833 c -3.4352,0 -6.2012,-2.766 -6.2012,-6.2012 l 0,-17.7168 c 0,-3.4352 2.766,-6.1992 6.2012,-6.1992 3.4352,0 6.2012,2.764 6.2012,6.1992 l 0,17.7168 c 0,3.4352 -2.766,6.2012 -6.2012,6.2012 z m 67.3223,-56.6934 c -3.4353,0 -6.1992,-2.7659 -6.1992,-6.2012 l 0,-17.7148 c 0,-3.4352 2.7639,-6.2012 6.1992,-6.2012 3.4352,0 6.2011,2.766 6.2011,6.2012 l 0,17.7148 c 0,3.4353 -2.7659,6.2012 -6.2011,6.2012 z"
       id="path4322-6-0-8-6-8"
       inkscape:connector-curvature="0" />
    <path
       style="fill:#ffd42a;fill-opacity:1;stroke:none;stroke-width:1;stroke-linecap:butt;stroke-linejoin:miter;stroke-miterlimit:4;stroke-dasharray:none;stroke-opacity:1"
       d="m 961.98958,320.53805 c 1.4717,-0.0122 2.9336,-0.0108 4.3847,0.004 l 0,13.27539 -6.6425,0 0,65.18554 -124.459,0 0,13.28711 31.8886,0 0,49.98438 -35.9726,0 0,13.28711 -13.2871,0 0,-13.28711 -39.8633,0 c -3.5554,-36.985 4.7483,-74.71787 43.6504,-103.19922 39.5896,-24.93708 94.6783,-38.16023 140.3008,-38.53711 z"
       id="path4256"
       inkscape:connector-curvature="0" />
    <path
       style="fill:#ffd42a;fill-opacity:1;stroke:none;stroke-width:1;stroke-linecap:butt;stroke-linejoin:miter;stroke-miterlimit:4;stroke-dasharray:none;stroke-opacity:1"
       d="m 1122.4784,312.77438 0,13.28711 -35.9726,0 0,125.41019 31.8886,0 0,13.2871 -31.8886,0 0,14.1718 c 0,23.5999 32.6246,67.9238 48.0234,77.6778 76.2925,48.3254 136.6838,20.2774 186.5019,-18.9356 42.4387,-34.6997 41.8305,-126.217 14.5079,-163.82223 -10.0185,-13.78885 -44.5574,-59.4857 -89.7266,-59.33399 -13.8273,0.0464 -28.6512,4.3898 -44.0723,15.25977 -18.2509,12.86463 -12.1709,34.13228 -1.4785,47.75781 9.8747,12.58354 29.3084,14.20872 35.9512,13.54297 22.1984,-2.99071 22.1227,-22.04781 31.2812,-15.11914 38.3934,29.04571 25.1989,75.58261 -10.2558,94.38481 -3.4006,8.3311 -8.1704,17.7991 -13.0801,20.2421 -5.5028,2.7381 -18.7289,7.7036 -21.5,0.5 3.9525,-4.0561 8.7692,-7.9816 11.123,-13.1875 -26.7464,3.7439 -59.821,-6.6208 -92.2402,-41.9101 -22.6056,-26.6178 -11.9387,-90.25142 34.0879,-109.92579 l -39.8633,0 0,-13.28711 -13.2871,0 z m 103.4492,27.25 a 13.464566,13.464566 0 0 1 13.4649,13.46484 13.464566,13.464566 0 0 1 -13.4649,13.46289 13.464566,13.464566 0 0 1 -13.4648,-13.46289 13.464566,13.464566 0 0 1 13.4648,-13.46484 z m 86.3223,90.2383 c 2.1981,-0.0594 4.3543,1.0582 5.5352,3.1035 l 8.8574,15.3418 c 1.7176,2.975 0.7054,6.7531 -2.2696,8.4707 -2.975,1.7176 -6.753,0.7055 -8.4707,-2.2695 l -8.8574,-15.3438 c -1.7176,-2.975 -0.7054,-6.7511 2.2696,-8.4687 0.9296,-0.5368 1.9364,-0.807 2.9355,-0.834 z m -29.957,82.7578 c 2.198,-0.0594 4.3543,1.0582 5.5351,3.1035 l 8.8574,15.3438 c 1.7177,2.975 0.7055,6.753 -2.2695,8.4707 -2.975,1.7176 -6.7531,0.7054 -8.4707,-2.2696 l -8.8574,-15.3437 c -1.7176,-2.975 -0.7055,-6.7531 2.2695,-8.4707 0.9297,-0.5368 1.9365,-0.807 2.9356,-0.834 z"
       id="path4322-6-2"
       inkscape:connector-curvature="0" />
  </g>
</svg>
