<?xml version="1.0" encoding="UTF-8" standalone="no"?>
<!-- Created with Inkscape (http://www.inkscape.org/) -->

<svg
   xmlns:dc="http://purl.org/dc/elements/1.1/"
   xmlns:cc="http://creativecommons.org/ns#"
   xmlns:rdf="http://www.w3.org/1999/02/22-rdf-syntax-ns#"
   xmlns:svg="http://www.w3.org/2000/svg"
   xmlns="http://www.w3.org/2000/svg"
   xmlns:sodipodi="http://sodipodi.sourceforge.net/DTD/sodipodi-0.dtd"
   xmlns:inkscape="http://www.inkscape.org/namespaces/inkscape"
   width="500mm"
   height="300mm"
   viewBox="0 0 1771.6535 1062.9921"
   id="svg2"
   version="1.1"
   inkscape:version="0.92.2 5c3e80d, 2017-08-06"
   sodipodi:docname="Outlines.svg"
   inkscape:export-filename="/Users/michaelkrzyzaniak/Documents/Dr_Squiggles/Software/Design_Files/3_point_75_mm/Outlines.png"
   inkscape:export-xdpi="199.9996"
   inkscape:export-ydpi="199.9996">
  <defs
     id="defs4" />
  <sodipodi:namedview
     id="base"
     pagecolor="#ffffff"
     bordercolor="#666666"
     borderopacity="1.0"
     inkscape:pageopacity="1"
     inkscape:pageshadow="2"
     inkscape:zoom="0.5"
     inkscape:cx="827.7904"
     inkscape:cy="540.70786"
     inkscape:document-units="mm"
     inkscape:current-layer="layer1"
     showgrid="false"
     inkscape:window-width="1440"
     inkscape:window-height="856"
     inkscape:window-x="27"
     inkscape:window-y="0"
     inkscape:window-maximized="0"
     inkscape:snap-bbox="true"
     inkscape:snap-bbox-midpoints="false"
     inkscape:snap-global="false"
     inkscape:bbox-paths="false"
     inkscape:bbox-nodes="true"
     inkscape:snap-bbox-edge-midpoints="false"
     inkscape:object-nodes="true"
     inkscape:snap-others="true"
     inkscape:snap-nodes="true"
     showguides="true"
     inkscape:snap-smooth-nodes="true"
     inkscape:snap-intersection-paths="true"
     inkscape:object-paths="true" />
  <metadata
     id="metadata7">
    <rdf:RDF>
      <cc:Work
         rdf:about="">
        <dc:format>image/svg+xml</dc:format>
        <dc:type
           rdf:resource="http://purl.org/dc/dcmitype/StillImage" />
        <dc:title />
      </cc:Work>
    </rdf:RDF>
  </metadata>
  <g
     inkscape:label="Layer 1"
     inkscape:groupmode="layer"
     id="layer1"
     transform="translate(0,10.629921)">
    <path
       style="fill:#ffd42a;fill-opacity:1;stroke:none;stroke-width:0.93749994;stroke-linecap:butt;stroke-linejoin:miter;stroke-miterlimit:4;stroke-dasharray:none;stroke-opacity:1"
       d="m 1411.0157,175.79907 h -78.0938 v 115.0625 h -13.2871 v -17.7168 h -301.1817 v 17.7168 h -13.2871 v -31.8906 h -14.1699 c -23.5999,0 -67.9219,32.6246 -77.6758,48.0234 -48.32545,76.2925 -20.27935,136.6835 18.9336,186.502 97.2344,84.0847 186.3221,3.5929 221.5039,-42.8203 18.6652,-24.6239 56.11,-31.6354 82.3223,-2.4199 11.0794,12.3489 10.5673,45.2929 -8.25,51.3691 -12.4939,4.0342 -24.1522,-1.4439 -25.1406,-16.1914 7.9611,-7.3032 15.4823,9.1663 14.7832,-10.9043 -6.4636,-11.9632 -19.5331,-14.0979 -28.2793,-5.0508 -23.3311,24.1335 5.7552,47.3867 15.3984,53.6231 54.5538,35.2808 120.3402,-40.0823 97.5996,-103.334 -7.8991,-21.9716 -26.4787,-42.4836 -59.9238,-56.3867 -32.7442,-12.1385 -69.5728,-2.3161 -94.6367,19.3789 -47.3166,42.4127 -44.3065,60.6044 -85.0293,71.4804 -20.7027,5.5292 -40.7291,-2.7692 -53.5606,-19.0117 -8.3043,-2.8138 -26.1996,-9.5643 -29.7031,-16.6055 -2.7381,-5.5027 -7.7036,-18.7289 -0.5,-21.5 5.213,5.0801 10.2102,11.5934 17.9883,12.4629 -6.3121,-26.8085 2.1772,-61.4854 37.1133,-93.58 26.6177,-22.6056 64.5841,-25.9745 95.5566,-14.1602 77.5652,31.1367 177.6941,94.286 243.3575,4.5977 22.848,-36.2729 35.8522,-85.5515 38.1621,-128.6446 z m -368.9747,331.2559 c 0,3.4352 -2.7659,6.2012 -6.2012,6.2012 h -17.7168 c -3.4352,0 -6.1992,-2.766 -6.1992,-6.2012 0,-3.4352 2.764,-6.2012 6.1992,-6.2012 h 17.7168 c 3.4353,0 6.2012,2.766 6.2012,6.2012 z m -56.6933,-67.3223 c 0,3.4353 -2.766,6.1992 -6.2012,6.1992 h -17.7149 c -3.4352,0 -6.2011,-2.7639 -6.2011,-6.1992 0,-3.4352 2.7659,-6.2011 6.2011,-6.2011 h 17.7149 c 3.4352,0 6.2012,2.7659 6.2012,6.2011 z"
       id="path4322-6-0-7-9-7"
       inkscape:connector-curvature="0" />
    <path
       style="fill:#ffd42a;fill-opacity:1;stroke:none;stroke-width:0.93749997;stroke-miterlimit:4;stroke-dasharray:none;stroke-opacity:1"
       d="m 756.93253,1023.6933 h -99.21286 v -13.2871 h 14.1738 v -15.0605 h 40.37696 11 v -46.9473 h -11 v -16.832 h 11 v -46.94933 h -11 v -14.6152 h 23.4023 v -56.6933 h -23.4023 -40.37696 v -15.0586 h -14.1738 v -13.2871 h 99.21286 z"
       id="rect1833-0"
       inkscape:connector-curvature="0" />
    <path
       style="opacity:1;fill:#ffd42a;fill-opacity:1;stroke:none;stroke-width:0.93749997;stroke-linecap:butt;stroke-linejoin:miter;stroke-miterlimit:4;stroke-dasharray:none;stroke-dashoffset:0;stroke-opacity:1"
       d="m 822.39452,456.39349 v 28.1172 h -13.2891 v -27.9941 a 159.44882,159.44882 0 0 0 -101.0664,41.9883 l 19.7051,19.707 -9.3946,9.3945 -19.7246,-19.7226 a 159.44882,159.44882 0 0 0 -13.9765,17.2851 v 83.7988 13.2891 h -27.9981 a 159.44882,159.44882 0 0 0 41.9375,101.1211 l 19.7617,-19.7598 9.3946,9.3946 -19.7832,19.78512 a 159.44882,159.44882 0 0 0 101.1445,42.0274 v -28.1114 h 13.2891 v 27.9981 a 159.44882,159.44882 0 0 0 101.1211,-41.9375 l -19.7598,-19.76172 9.3945,-9.3946 19.7852,19.7832 a 159.44882,159.44882 0 0 0 42.0273,-101.1445 h -28.1113 v -13.2891 -83.7988 a 159.44882,159.44882 0 0 0 -14.0098,-17.2519 l -19.6914,19.6894 -9.3945,-9.3945 19.7266,-19.7285 a 159.44882,159.44882 0 0 0 -101.0879,-42.0899 z m -29.6758,74.6231 h 46.0625 v 35.4316 h -46.0625 z m 16.3867,49.6054 h 13.2891 v 28.3457 h -13.2891 z"
       id="path4324-9-2"
       inkscape:connector-curvature="0" />
    <path
       style="fill:#ffd42a;fill-opacity:1;stroke:none;stroke-width:0.93749997;stroke-linecap:butt;stroke-linejoin:miter;stroke-miterlimit:4;stroke-dasharray:none;stroke-opacity:1"
       d="m 372.7206,4.8251572 c -45.17332,0.784643 -99.1022,13.9716258 -138.04293,38.4999998 -89.6883,65.663413 -26.53904,165.792283 4.59766,243.357423 11.8143,30.97251 8.44544,68.93693 -14.16016,95.55469 -31.7982,34.61339 -65.48887,41.89776 -93.63476,34.29101 -0.59261,9.4414 6.84991,14.99047 12.51758,20.80664 -2.7711,7.20359 -15.9972,2.23811 -21.5,-0.5 -8.18164,-4.07105 -15.98046,-27.57959 -17.64258,-32.85156 -38.67373,-26.91139 -55.40954,-82.67464 -16.94336,-111.77539 9.1585,-6.92867 40.95785,-26.30907 55.65625,3.86914 5.5101,11.31308 -0.96557,22.86557 -14.41797,24.84766 -19.0993,-6.20761 -1.05161,-7.64224 -5.19141,-17.6211 -14.1962,-4.11518 -23.3303,4.96773 -23.8125,18.08789 -0.7262,19.76059 30.05572,31.50803 45.44922,25.32032 36.4188,-14.63917 39.76972,-50.58339 25.88282,-78.18555 -42.6182,-62.01972 -119.36573,-27.24981 -151.61133,53.44922 -20.44569946,55.34224 -16.6798896,127.24759 25.75781,161.94726 49.8185,39.21304 110.20945,67.26097 186.50195,18.93555 15.3988,-9.75395 48.02344,-54.07586 48.02344,-77.67578 V 411.00875 H 248.26166 V 397.72164 H 379.3632 510.4667 v 13.28711 h -31.8906 v 14.17383 c 0,23.59992 32.6266,67.92183 48.0254,77.67578 76.2925,48.32542 136.6815,20.27749 186.5,-18.93555 42.4377,-34.69967 46.2054,-106.60502 25.7597,-161.94726 -32.2456,-80.69903 -108.9951,-115.46894 -151.6133,-53.44922 -13.8869,27.60216 -10.5359,63.54638 25.8829,78.18555 15.3935,6.18771 46.1754,-5.55973 45.4492,-25.32032 -0.4822,-13.12016 -9.6163,-22.20307 -23.8125,-18.08789 -4.1398,9.97886 13.9079,11.41349 -5.1914,17.6211 -13.4524,-1.98209 -19.9281,-13.53458 -14.418,-24.84766 14.6984,-30.17821 46.4978,-10.79781 55.6563,-3.86914 38.4657,29.10042 21.7314,84.86365 -16.9415,111.77539 -1.662,5.27178 -9.4628,28.78049 -17.6445,32.85156 -5.5028,2.73811 -18.7289,7.70359 -21.5,0.5 5.6681,-5.81657 13.1133,-11.36602 12.5195,-20.80859 -28.1463,7.60777 -61.8376,0.32527 -93.6367,-34.28906 C 511.0056,355.61951 507.6387,317.65509 519.453,286.68258 550.5897,209.11744 613.739,108.98857 524.0507,43.325157 485.1106,18.797157 431.1808,5.6121762 386.0078,4.8271102 V 18.067345 H 372.7206 Z M 248.26166,83.25289 H 379.3632 510.4667 V 96.54 H 478.5761 V 333.05563 H 453.7733 V 96.54 H 379.3632 248.26166 Z M 426.371,120.915 h 12.4023 v 41.9336 H 426.371 Z M 32.0683,374.13375 c 3.43524,0 6.19922,2.76398 6.19922,6.19922 v 17.7168 c 0,3.43523 -2.76398,6.20117 -6.19922,6.20117 -3.43524,0 -6.20117,-2.76594 -6.20117,-6.20117 v -17.7168 c 0,-3.43524 2.76593,-6.19922 6.20117,-6.19922 z m 694.5918,0 c 3.4352,0 6.2011,2.76398 6.2011,6.19922 v 17.7168 c 0,3.43523 -2.7659,6.20117 -6.2011,6.20117 -3.4353,0 -6.2012,-2.76594 -6.2012,-6.20117 v -17.7168 c 0,-3.43524 2.7659,-6.19922 6.2012,-6.19922 z M 99.39056,430.82516 c 3.43525,0 6.20118,2.76593 6.20118,6.20117 v 17.7168 c 0,3.43523 -2.76593,6.20117 -6.20118,6.20117 -3.43523,0 -6.20117,-2.76594 -6.20117,-6.20117 v -17.7168 c 0,-3.43524 2.76594,-6.20117 6.20117,-6.20117 z m 559.94524,0 c 3.4353,0 6.2012,2.76593 6.2012,6.20117 v 17.7168 c 0,3.43523 -2.7659,6.20117 -6.2012,6.20117 -3.4352,0 -6.1992,-2.76594 -6.1992,-6.20117 v -17.7168 c 0,-3.43524 2.764,-6.20117 6.1992,-6.20117 z"
       id="path4322-6-7"
       inkscape:connector-curvature="0" />
    <path
       style="fill:#ffd42a;fill-opacity:1;stroke:none;stroke-width:0.93749997;stroke-linecap:butt;stroke-linejoin:miter;stroke-miterlimit:4;stroke-dasharray:none;stroke-opacity:1"
       d="m 232.74802,649.28804 c -1.4717,-0.0122 -2.9336,-0.0107 -4.3848,0.004 v 13.27539 h 6.6446 v 78.47265 h 28.3457 v -13.28711 h 14.1738 v -74.38281 c -15.343,-2.59184 -30.5235,-3.96426 -44.7793,-4.08203 z"
       id="path4965"
       inkscape:connector-curvature="0" />
    <path
       style="fill:#ffd42a;fill-opacity:1;stroke:none;stroke-width:0.93749997;stroke-linecap:butt;stroke-linejoin:miter;stroke-miterlimit:4;stroke-dasharray:none;stroke-opacity:1"
       d="m 1392.3127,1043.5689 v -66.21877 h -46.5059 v -13.2871 h 57.5801 v -301.1817 h -57.5801 v -13.2871 h 31.8906 v -14.1738 c 0,-23.5999 -32.6265,-67.92182 -48.0253,-77.67582 -76.2925,-48.3254 -136.6815,-20.2774 -186.5,18.9356 -42.4377,34.69972 -46.2055,106.60502 -25.7598,161.94722 32.2456,80.6991 108.9951,115.469 151.6133,53.4493 13.8869,-27.6022 10.5359,-63.5464 -25.8828,-78.1856 -15.3936,-6.1877 -46.1755,5.5597 -45.4493,25.3203 0.4822,13.1202 9.6163,22.2031 23.8125,18.0879 4.1398,-9.9788 -13.9079,-11.4135 5.1914,-17.6211 13.4524,1.9821 19.9281,13.5346 14.418,24.8477 -14.6984,30.1782 -46.4977,10.7978 -55.6562,3.8691 -38.4658,-29.1004 -21.7314,-84.8636 16.9414,-111.7754 1.662,-5.2718 9.4628,-28.7804 17.6445,-32.8515 5.5028,-2.7381 18.7289,-7.7036 21.5,-0.5 -5.6681,5.8166 -13.1133,11.366 -12.5195,20.8086 28.1463,-7.6078 61.8376,-0.3253 93.6367,34.289 22.6056,26.6178 25.9725,64.5822 14.1582,95.5547 -31.1367,77.5651 -94.286,177.694 -4.5977,243.35737 17.6792,11.1359 38.452,19.928 60.0899,26.2911 z M 1129.6135,686.46923 c -3.4353,0 -6.2012,-2.7639 -6.2012,-6.1992 v -17.7168 c 0,-3.4352 2.7659,-6.2012 6.2012,-6.2012 3.4352,0 6.2011,2.766 6.2011,6.2012 v 17.7168 c 0,3.4353 -2.7659,6.1992 -6.2011,6.1992 z m 67.3242,-56.6913 c -3.4353,0 -6.2012,-2.766 -6.2012,-6.2012 v -17.71682 c 0,-3.4352 2.7659,-6.2012 6.2012,-6.2012 3.4352,0 6.1992,2.766 6.1992,6.2012 v 17.71682 c 0,3.4352 -2.764,6.2012 -6.1992,6.2012 z"
       id="path4322-6-6"
       inkscape:connector-curvature="0" />
    <path
       style="fill:#ffd42a;fill-opacity:1;stroke:none;stroke-width:0.93749997;stroke-miterlimit:4;stroke-dasharray:none;stroke-opacity:1"
       d="m 1576.7343,173.65914 v 13.28906 h -67.8535 v 40.74805 h -13.2871 v 17.71485 h 13.2871 v 40.74804 h 67.8535 v 13.28906 h 17.7168 v -13.28906 h 67.8535 V 245.4111 h 13.2891 v -17.71485 h -13.2891 V 186.9482 h -67.8535 v -13.28906 z"
       id="rect3091"
       inkscape:connector-curvature="0" />
    <text
       xml:space="preserve"
       style="font-style:normal;font-weight:normal;line-height:0%;font-family:sans-serif;letter-spacing:0px;word-spacing:0px;fill:#000000;fill-opacity:1;stroke:none;stroke-width:0.93749997;stroke-miterlimit:4;stroke-dasharray:none;stroke-opacity:1;"
       x="1525.3782"
       y="224.77409"
       id="text3181"><tspan
         sodipodi:role="line"
         id="tspan3179"
         x="1525.3782"
         y="224.77409"
         style="font-size:37.5px;line-height:1.25;fill:#000000;stroke:none;stroke-width:0.93749997;stroke-miterlimit:4;stroke-dasharray:none;stroke-opacity:1;">2mm </tspan><tspan
         sodipodi:role="line"
         x="1525.3782"
         y="271.64911"
         style="font-size:37.5px;line-height:1.25;fill:#000000;stroke:none;stroke-width:0.93749997;stroke-miterlimit:4;stroke-dasharray:none;stroke-opacity:1;"
         id="tspan5794">acrylic</tspan></text>
    <rect
       style="fill:#ffd42a;fill-opacity:1;stroke:none;stroke-width:0.93749997;stroke-miterlimit:4;stroke-dasharray:none;stroke-opacity:1"
       id="rect3091-5"
       width="153.4252"
       height="99.212585"
       x="1493.5374"
       y="43.88092" />
    <text
       xml:space="preserve"
       style="font-style:normal;font-weight:normal;line-height:0%;font-family:sans-serif;letter-spacing:0px;word-spacing:0px;fill:#000000;fill-opacity:1;stroke:none;stroke-width:0.93749997;stroke-miterlimit:4;stroke-dasharray:none;stroke-opacity:1;"
       x="1519.1183"
       y="101.96317"
       id="text3220"><tspan
         sodipodi:role="line"
         id="tspan3218"
         x="1519.1183"
         y="101.96317"
         style="font-size:37.5px;line-height:1.25;fill:#000000;stroke:none;stroke-width:0.93749997;stroke-miterlimit:4;stroke-dasharray:none;stroke-opacity:1;">paper</tspan></text>
    <path
       style="opacity:1;fill:#ffd42a;fill-opacity:1;stroke:none;stroke-width:0.93749997;stroke-linecap:butt;stroke-linejoin:miter;stroke-miterlimit:4;stroke-dasharray:none;stroke-dashoffset:0;stroke-opacity:1"
       d="m 155.95793,35.011683 h -17.71679 v 13.2871 h -17.7168 v -13.2871 h -17.7168 v 81.140597 h 7.08789 v 17.7168 h -7.08789 v 81.1426 h 17.7168 v -13.2871 h 17.7168 v 13.2871 h 17.71679 v -83.35739 h -13.28711 v -13.2871 h 13.28711 z"
       id="rect5754-4-0"
       inkscape:connector-curvature="0" />
    <path
       inkscape:connector-curvature="0"
       style="opacity:1;fill:#ffd42a;fill-opacity:1;stroke:none;stroke-width:0.93749997;stroke-linecap:butt;stroke-linejoin:miter;stroke-miterlimit:4;stroke-dasharray:none;stroke-dashoffset:0;stroke-opacity:1"
       d="m 829.20008,810.61218 h -17.71679 v 13.2871 h -17.7168 v -13.2871 h -17.7168 v 81.14059 h 7.08789 v 17.7168 h -7.08789 v 81.1426 h 17.7168 v -13.2871 h 17.7168 v 13.2871 h 17.71679 v -83.3574 h -13.28711 v -13.2871 h 13.28711 z"
       id="rect5754-4-0-2" />
    <path
       style="fill:#ffd42a;fill-opacity:1;stroke:none;stroke-width:0.93749997;stroke-linecap:butt;stroke-linejoin:miter;stroke-miterlimit:4;stroke-dasharray:none;stroke-opacity:1"
       d="m 286.58194,420.85836 v 78.09375 H 401.6444 v 13.28711 h -17.7168 v 301.18164 h 17.7168 v 13.28711 h -31.8906 v 14.16992 c 0,23.59992 32.6246,67.92189 48.0234,77.67579 76.2925,48.3255 136.6835,20.2794 186.502,-18.9336 84.0847,-97.23439 3.5929,-186.32208 -42.8203,-221.50391 -24.6239,-18.66523 -31.6354,-56.10994 -2.4199,-82.32226 12.3489,-11.07942 45.2929,-10.56725 51.3691,8.25 4.0342,12.49385 -1.4439,24.15223 -16.1914,25.14062 -7.3032,-7.96117 9.1663,-15.48231 -10.9043,-14.7832 -11.9632,6.46353 -14.0979,19.53304 -5.0508,28.2793 24.1335,23.33108 47.3867,-5.75523 53.6231,-15.39844 35.2808,-54.55373 -40.0823,-120.34012 -103.334,-97.59961 -21.9716,7.8991 -42.4836,26.47878 -56.3867,59.92383 -12.1385,32.74423 -2.3161,69.5728 19.3789,94.63672 42.4127,47.31653 60.6044,44.30641 71.4804,85.02929 5.5292,20.70265 -2.7692,40.7291 -19.0117,53.56055 -2.8138,8.30433 -9.5643,26.1996 -16.6055,29.70313 -5.5027,2.7381 -18.7289,7.70359 -21.5,0.5 5.0801,-5.21299 11.5934,-10.21018 12.4629,-17.98829 -26.8085,6.31203 -61.4854,-2.17723 -93.58,-37.11328 -22.6056,-26.61776 -25.9745,-64.58413 -14.1602,-95.55664 31.1367,-77.56515 94.286,-177.69403 4.5977,-243.35742 C 378.9536,436.17245 329.67504,423.1683 286.58194,420.85836 Z M 617.8378,789.83297 c 3.4352,0 6.2012,2.76594 6.2012,6.20117 v 17.7168 c 0,3.43524 -2.766,6.19922 -6.2012,6.19922 -3.4352,0 -6.2012,-2.76398 -6.2012,-6.19922 v -17.7168 c 0,-3.43523 2.766,-6.20117 6.2012,-6.20117 z m -67.3223,56.69336 c 3.4353,0 6.1992,2.76594 6.1992,6.20117 v 17.71488 c 0,3.4352 -2.7639,6.2011 -6.1992,6.2011 -3.4352,0 -6.2011,-2.7659 -6.2011,-6.2011 V 852.7275 c 0,-3.43523 2.7659,-6.20117 6.2011,-6.20117 z"
       id="path4322-6-0-7"
       inkscape:connector-curvature="0" />
    <path
       inkscape:connector-curvature="0"
       style="fill:#ffd42a;fill-opacity:1;stroke:none;stroke-width:0.93749997;stroke-linecap:butt;stroke-linejoin:miter;stroke-miterlimit:4;stroke-dasharray:none;stroke-opacity:1"
       d="M 459.688,1043.5029 V 965.4091 H 344.6255 V 952.122 h 17.7168 V 650.94039 h -17.7168 v -13.2871 h 31.8906 v -14.1699 c 0,-23.5999 -32.6246,-67.9219 -48.0234,-77.6758 -76.2924,-48.3255 -136.6834,-20.2794 -186.5019,18.9336 -84.0847,97.2344 -3.5929,186.3221 42.8203,221.50391 24.6239,18.6652 31.6354,56.1099 2.4199,82.3222 -12.3489,11.0795 -45.2929,10.5673 -51.3691,-8.25 -4.0342,-12.4938 1.4439,-24.1522 16.1914,-25.1406 7.3032,7.9612 -9.1663,15.4823 10.9043,14.7832 11.9632,-6.4635 14.0979,-19.533 5.0508,-28.2793 -24.1335,-23.3311 -47.3867,5.7552 -53.6231,15.3985 -35.2808,54.5537 40.0823,120.3401 103.334,97.5996 21.9716,-7.8991 42.4836,-26.4788 56.3867,-59.9239 12.1384,-32.7442 2.3161,-69.5728 -19.3789,-94.6367 -42.4127,-47.31651 -60.6044,-44.30641 -71.4804,-85.02921 -5.5292,-20.7027 2.7692,-40.7291 19.0117,-53.5606 2.8138,-8.3043 9.5643,-26.1996 16.6055,-29.7031 5.5027,-2.7381 18.7289,-7.7036 21.5,-0.5 -5.0801,5.213 -11.5934,10.2102 -12.4629,17.9883 26.8085,-6.3121 61.4853,2.1772 93.5799,37.1132 22.6056,26.6178 25.9745,64.5842 14.1602,95.5567 -31.1367,77.56511 -94.2859,177.69401 -4.5977,243.35741 36.2729,22.848 85.5515,35.8521 128.6446,38.1621 z M 128.4322,674.52829 c -3.4352,0 -6.2012,-2.7659 -6.2012,-6.2012 v -17.7168 c 0,-3.4352 2.766,-6.1992 6.2012,-6.1992 3.4352,0 6.2012,2.764 6.2012,6.1992 v 17.7168 c 0,3.4353 -2.766,6.2012 -6.2012,6.2012 z m 67.3223,-56.6934 c -3.4353,0 -6.1992,-2.7659 -6.1992,-6.2011 v -17.7149 c 0,-3.4352 2.7639,-6.2011 6.1992,-6.2011 3.4352,0 6.2011,2.7659 6.2011,6.2011 v 17.7149 c 0,3.4352 -2.7659,6.2011 -6.2011,6.2011 z"
       id="path4322-6-0-7-6" />
    <path
       style="opacity:1;fill:#ffd42a;fill-opacity:1;stroke:none;stroke-width:0.93749997;stroke-linecap:butt;stroke-linejoin:miter;stroke-miterlimit:4;stroke-dasharray:none;stroke-dashoffset:0;stroke-opacity:1"
       d="m 44.578853,26.655846 v 13.28796 h -17.71545 v 99.212034 h 17.71545 v 13.28797 h 17.71729 v -13.28797 h 17.71545 V 98.40756 h -7.08618 V 80.692106 h 7.08618 v -40.7483 h -17.71545 v -13.28796 z"
       id="rect5754-0-4"
       inkscape:connector-curvature="0" />
    <path
       style="opacity:1;fill:#ffd42a;fill-opacity:1;stroke:none;stroke-width:0.93749997;stroke-linecap:butt;stroke-linejoin:miter;stroke-miterlimit:4;stroke-dasharray:none;stroke-dashoffset:0;stroke-opacity:1"
       d="m 47.391353,530.0932 v 13.28796 h -17.71545 v 99.21203 h 17.71545 v 13.28797 h 17.717289 v -13.28797 h 17.71545 v -40.74828 h -7.08618 v -17.71545 h 7.08618 v -40.7483 H 65.108642 V 530.0932 Z"
       id="rect5754-0-4-7"
       inkscape:connector-curvature="0" />
    <path
       style="fill:#ffd42a;fill-opacity:1;stroke:none;stroke-width:0.93749997;stroke-linecap:butt;stroke-linejoin:miter;stroke-miterlimit:4;stroke-dasharray:none;stroke-opacity:1"
       d="m 810.86517,350.47777 h 78.09375 v -115.0625 h 13.28711 v 17.7168 h 301.18167 v -17.7168 h 13.2871 v 31.8906 h 14.1699 c 23.5999,0 67.9219,-32.6246 77.6758,-48.0234 C 1356.886,142.99 1328.8399,82.599 1289.6269,32.7805 c -97.2344,-84.0847 -186.3221,-3.5929 -221.5039,42.8203 -18.6652,24.6239 -56.11,31.6354 -82.32228,2.4199 -11.07942,-12.3489 -10.56725,-45.2929 8.25,-51.3691 12.49388,-4.0342 24.15218,1.4439 25.14058,16.1914 -7.9611,7.3032 -15.4823,-9.1663 -14.7832,10.9043 6.4636,11.9632 19.5331,14.0979 28.2793,5.0508 C 1056.0185,34.6646 1026.9322,11.4114 1017.289,5.1750002 962.73527,-30.1058 896.94888,45.2573 919.68939,108.509 c 7.8991,21.9716 26.47877,42.4836 59.92383,56.3867 32.74418,12.1385 69.57278,2.3161 94.63668,-19.3789 47.3166,-42.4127 44.3065,-60.6044 85.0293,-71.4804 20.7027,-5.5292 40.7291,2.7692 53.5606,19.0117 8.3043,2.8138 26.1996,9.5643 29.7031,16.6055 2.7381,5.5027 7.7036,18.7289 0.5,21.5 -5.213,-5.0801 -10.2102,-11.5934 -17.9883,-12.4629 6.3121,26.8085 -2.1772,61.4854 -37.1133,93.57997 -26.6177,22.6056 -64.5841,25.9745 -95.5566,14.1602 -77.5652,-31.13667 -177.69403,-94.28597 -243.35742,-4.5977 -22.84802,36.2729 -35.85217,85.5515 -38.16211,128.6446 z M 1179.8398,19.2219 c 0,-3.4352 2.7659,-6.2012 6.2012,-6.2012 h 17.7168 c 3.4352,0 6.1992,2.766 6.1992,6.2012 0,3.4352 -2.764,6.2012 -6.1992,6.2012 h -17.7168 c -3.4353,0 -6.2012,-2.766 -6.2012,-6.2012 z m 56.6933,67.3223 c 0,-3.4353 2.766,-6.1992 6.2012,-6.1992 h 17.7149 c 3.4352,0 6.2011,2.7639 6.2011,6.1992 0,3.4352 -2.7659,6.2011 -6.2011,6.2011 h -17.7149 c -3.4352,0 -6.2012,-2.7659 -6.2012,-6.2011 z"
       id="path4322-6-0-7-9"
       inkscape:connector-curvature="0" />
    <path
       style="fill:#ffd42a;fill-opacity:1;stroke:none;stroke-width:0.93749997;stroke-linecap:butt;stroke-linejoin:miter;stroke-miterlimit:4;stroke-dasharray:none;stroke-opacity:1"
       d="m 7.4765124,855.13271 c -0.0122,-1.47169 -0.0111,-2.93428 0.004,-4.38544 H 20.755662 v 6.64491 h 65.183719 v 124.45865 h 13.28796 v -31.88971 h 49.984119 v 35.9729 h 13.28797 v 13.28803 h -13.28797 v 39.86205 h -0.011 c -36.67792,0 -74.896699,-5.0066 -103.189088,-43.65049 C 21.073952,955.84393 7.8534324,900.75521 7.4765124,855.13271 Z"
       id="path1157"
       inkscape:connector-curvature="0" />
    <path
       style="fill:#ffd42a;fill-opacity:1;stroke:none;stroke-width:0.93749997;stroke-linecap:butt;stroke-linejoin:miter;stroke-miterlimit:4;stroke-dasharray:none;stroke-opacity:1"
       d="M 840.45253,-7.0010572 V 6.2869083 h 35.97291 V 131.69584 h -31.88972 v 13.28796 h 31.8915 v 14.17237 c 0,23.59992 -32.62612,67.92303 -48.02494,77.677 C 752.10985,285.15858 691.7206,257.11126 641.90204,217.89823 597.9182,178.06061 590.81898,58.777073 680.82666,22.385546 717.78544,6.3054423 764.21044,6.3436083 787.4416,41.875289 c 16.90875,25.861574 10.53684,63.548691 -25.88194,78.187861 -15.39347,6.18771 -46.17665,-5.56106 -45.45047,-25.321657 0.48225,-13.120152 9.61669,-22.204161 23.81288,-18.088987 4.13981,9.978863 -13.90819,11.414466 5.19103,17.622075 13.45247,-1.982091 19.92862,-13.534331 14.41772,-24.847415 -14.69831,-30.178208 -46.49634,-10.797684 -55.65488,-3.869016 -37.43053,28.317262 -28.24949,70.55914 2.95904,87.7185 3.28743,7.57099 7.5569,15.354 11.9384,17.53418 5.50284,2.73811 18.72919,7.70347 21.50025,0.49988 -3.30862,-3.39532 -7.20684,-6.70858 -9.77597,-10.74829 25.59853,2.67299 58.07916,-8.6304 90.89353,-44.34997 C 843.99431,89.597665 836.61825,39.134695 787.31897,6.2869083 H 827.1645 V -7.0010572 Z M 628.34317,108.11918 c -3.43529,0 -6.20185,2.76655 -6.20185,6.20178 v 17.71545 c 0,3.43525 2.76656,6.20179 6.20185,6.20179 3.43518,0 6.19987,-2.76654 6.19987,-6.20179 v -17.71545 c 0,-3.43523 -2.76469,-6.20178 -6.19987,-6.20178 z m 67.32234,56.69311 c -3.43519,0 -6.19997,2.76655 -6.19997,6.20178 v 17.71546 c 0,3.43524 2.76478,6.20178 6.19997,6.20178 3.43528,0 6.20175,-2.76654 6.20175,-6.20178 v -17.71546 c 0,-3.43523 -2.76647,-6.20178 -6.20175,-6.20178 z"
       id="path4322-6-3"
       inkscape:connector-curvature="0" />
    <path
       style="opacity:1;fill:#ffd42a;fill-opacity:1;stroke:none;stroke-width:4.26666689;stroke-linecap:butt;stroke-linejoin:miter;stroke-miterlimit:4;stroke-dasharray:none;stroke-dashoffset:0;stroke-opacity:1"
       d="M 1081.0859 779.94336 L 1081.0859 810.01562 L 1066.9141 810.01562 L 1066.9141 780.13477 A 170.07875 170.07875 0 0 0 958.9668 824.80273 L 980.12695 845.96289 L 970.10547 855.98633 L 949.00781 834.88867 A 170.07875 170.07875 0 0 0 904.08984 942.77148 L 934.1582 942.77148 L 934.1582 956.94531 L 934.1582 1045.6992 A 170.07875 170.07875 0 0 0 949.07812 1064.7578 L 970.10547 1043.7305 L 980.12695 1053.752 L 959.07812 1074.8027 A 170.07875 170.07875 0 0 0 1066.9141 1119.582 L 1066.9141 1089.7012 L 1081.0859 1089.7012 L 1081.0859 1119.6875 A 170.07875 170.07875 0 0 0 1189.0859 1074.9668 L 1167.873 1053.752 L 1177.8945 1043.7305 L 1199.0449 1064.8809 A 170.07875 170.07875 0 0 0 1213.8418 1046.0371 L 1213.8418 956.94531 L 1213.8418 942.77148 L 1243.7109 942.77148 A 170.07875 170.07875 0 0 0 1199.0234 834.85742 L 1177.8945 855.98633 L 1167.873 845.96289 L 1189.0293 824.80664 A 170.07875 170.07875 0 0 0 1081.0859 779.94336 z M 1088.6445 817.57422 L 1108.4863 817.57422 L 1108.4863 830.80273 L 1088.6445 830.80273 L 1088.6445 817.57422 z M 1004.8477 831.93359 L 1014.2012 841.28711 L 1000.1699 855.31836 L 990.81641 845.96289 L 1004.8477 831.93359 z M 1191.8945 852.67578 L 1205.9238 866.70508 L 1196.5703 876.05859 L 1182.541 862.0293 L 1191.8945 852.67578 z M 1111.7949 884.66211 L 1172.2676 884.66211 L 1172.2676 935.30664 L 1111.7949 935.30664 L 1111.7949 884.66211 z M 975.73242 886.55078 L 1030.5352 886.55078 L 1030.5352 945.13477 L 975.73242 945.13477 L 975.73242 886.55078 z M 1043.7637 886.55078 L 1098.5664 886.55078 L 1098.5664 945.13477 L 1043.7637 945.13477 L 1043.7637 886.55078 z M 923.82227 915.33398 L 937.05078 915.33398 L 937.05078 935.17578 L 923.82227 935.17578 L 923.82227 915.33398 z M 946.67773 928.59766 L 960.84961 928.59766 L 960.84961 942.77148 L 946.67773 942.77148 L 946.67773 928.59766 z M 1187.1504 928.59766 L 1201.3223 928.59766 L 1201.3223 942.77148 L 1187.1504 942.77148 L 1187.1504 928.59766 z M 1193.0547 964.50391 L 1206.2832 964.50391 L 1206.2832 984.3457 L 1193.0547 984.3457 L 1193.0547 964.50391 z M 1080.0586 977.91797 L 1099.9004 977.91797 L 1099.9004 988.31055 L 1080.0586 988.31055 L 1080.0586 977.91797 z M 1163.6602 982.47266 A 22.204725 22.204725 0 0 1 1185.8652 1004.6777 A 22.204725 22.204725 0 0 1 1163.6602 1026.8828 A 22.204725 22.204725 0 0 1 1141.457 1004.6777 A 22.204725 22.204725 0 0 1 1163.6602 982.47266 z M 1025.2871 985.09766 L 1070.6426 985.09766 L 1070.6426 1011.5547 L 1025.2871 1011.5547 L 1025.2871 985.09766 z M 1111.6836 1001.8438 A 11.811023 11.811023 0 0 1 1123.4941 1013.6543 A 11.811023 11.811023 0 0 1 1111.6836 1025.4648 A 11.811023 11.811023 0 0 1 1099.873 1013.6543 A 11.811023 11.811023 0 0 1 1111.6836 1001.8438 z M 965.42969 1009.6562 L 979.45898 1023.6875 L 970.10547 1033.041 L 956.07422 1019.0117 L 965.42969 1009.6562 z M 1147.8301 1044.3984 L 1157.1836 1053.752 L 1143.1523 1067.7832 L 1133.7988 1058.4297 L 1147.8301 1044.3984 z M 1039.5137 1068.9141 L 1059.3555 1068.9141 L 1059.3555 1082.1426 L 1039.5137 1082.1426 L 1039.5137 1068.9141 z "
       transform="matrix(0.93749997,0,0,0.93749997,0,-10.629921)"
       id="path4324-9" />
  </g>
</svg>
