<?xml version="1.0" encoding="UTF-8" standalone="no"?>
<!-- Created with Inkscape (http://www.inkscape.org/) -->

<svg
   xmlns:dc="http://purl.org/dc/elements/1.1/"
   xmlns:cc="http://creativecommons.org/ns#"
   xmlns:rdf="http://www.w3.org/1999/02/22-rdf-syntax-ns#"
   xmlns:svg="http://www.w3.org/2000/svg"
   xmlns="http://www.w3.org/2000/svg"
   xmlns:sodipodi="http://sodipodi.sourceforge.net/DTD/sodipodi-0.dtd"
   xmlns:inkscape="http://www.inkscape.org/namespaces/inkscape"
   width="400mm"
   height="300mm"
   viewBox="0 0 1417.3228 1062.9921"
   id="svg2"
   version="1.1"
   inkscape:version="0.91 r13725"
   sodipodi:docname="Outlines.svg">
  <defs
     id="defs4" />
  <sodipodi:namedview
     id="base"
     pagecolor="#ffffff"
     bordercolor="#666666"
     borderopacity="1.0"
     inkscape:pageopacity="0.0"
     inkscape:pageshadow="2"
     inkscape:zoom="1"
     inkscape:cx="1037.5523"
     inkscape:cy="1626.6241"
     inkscape:document-units="mm"
     inkscape:current-layer="layer1"
     showgrid="false"
     inkscape:window-width="1440"
     inkscape:window-height="856"
     inkscape:window-x="3"
     inkscape:window-y="0"
     inkscape:window-maximized="0"
     inkscape:snap-bbox="true"
     inkscape:snap-bbox-midpoints="true"
     inkscape:snap-global="true"
     inkscape:bbox-paths="false"
     inkscape:bbox-nodes="true"
     inkscape:snap-bbox-edge-midpoints="true"
     inkscape:object-nodes="true"
     inkscape:snap-others="false"
     inkscape:snap-nodes="false"
     showguides="false" />
  <metadata
     id="metadata7">
    <rdf:RDF>
      <cc:Work
         rdf:about="">
        <dc:format>image/svg+xml</dc:format>
        <dc:type
           rdf:resource="http://purl.org/dc/dcmitype/StillImage" />
        <dc:title />
      </cc:Work>
    </rdf:RDF>
  </metadata>
  <g
     inkscape:label="Layer 1"
     inkscape:groupmode="layer"
     id="layer1"
     transform="translate(0,10.629921)">
    <path
       style="opacity:1;fill:#ffd42a;fill-opacity:1;stroke:none;stroke-width:4;stroke-linecap:butt;stroke-linejoin:miter;stroke-miterlimit:4;stroke-dasharray:none;stroke-dashoffset:0;stroke-opacity:1"
       d="M 877.08594 -892.98828 L 877.08594 -864.89258 L 862.91406 -864.89258 L 862.91406 -892.87109 A 159.44882 159.44882 0 0 0 762.51172 -851.30078 L 782.30859 -831.50391 L 772.28516 -821.48242 L 752.47266 -841.29688 A 159.44882 159.44882 0 0 0 738.89844 -823.96289 L 738.89844 -740.87695 L 738.89844 -726.70312 L 710.91602 -726.70312 A 159.44882 159.44882 0 0 0 752.4707 -626.2832 L 772.28516 -646.09766 L 782.30859 -636.07617 L 762.51172 -616.2793 A 159.44882 159.44882 0 0 0 862.91406 -574.54297 L 862.91406 -602.6875 L 877.08594 -602.6875 L 877.08594 -574.69727 A 159.44882 159.44882 0 0 0 977.49609 -616.27148 L 957.69336 -636.07617 L 967.71484 -646.09766 L 987.47852 -626.33398 A 159.44882 159.44882 0 0 0 1029.2422 -726.70312 L 1001.1016 -726.70312 L 1001.1016 -740.87695 L 1001.1016 -824.12695 A 159.44882 159.44882 0 0 0 987.46484 -841.23438 L 967.71484 -821.48242 L 957.69336 -831.50391 L 977.45898 -851.27148 A 159.44882 159.44882 0 0 0 877.08594 -892.98828 z M 905.43359 -795.35547 L 962.12695 -795.35547 L 962.12695 -747.875 L 905.43359 -747.875 L 905.43359 -795.35547 z M 777.875 -793.58398 L 829.25195 -793.58398 L 829.25195 -738.66211 L 777.875 -738.66211 L 777.875 -793.58398 z M 841.6543 -793.58398 L 893.03125 -793.58398 L 893.03125 -738.66211 L 841.6543 -738.66211 L 841.6543 -793.58398 z M 750.63477 -755.05078 L 764.80859 -755.05078 L 764.80859 -740.87695 L 750.63477 -740.87695 L 750.63477 -755.05078 z M 975.19141 -755.05078 L 989.36523 -755.05078 L 989.36523 -740.87695 L 975.19141 -740.87695 L 975.19141 -755.05078 z M 974.25 -695.95312 A 12.047244 12.047244 0 0 1 986.29688 -683.90625 A 12.047244 12.047244 0 0 1 974.25 -671.85938 A 12.047244 12.047244 0 0 1 962.20312 -683.90625 A 12.047244 12.047244 0 0 1 974.25 -695.95312 z M 932.0625 -694.625 A 10.718504 10.718504 0 0 1 942.78125 -683.90625 A 10.718504 10.718504 0 0 1 932.0625 -673.1875 A 10.718504 10.718504 0 0 1 921.34375 -683.90625 A 10.718504 10.718504 0 0 1 932.0625 -694.625 z "
       transform="translate(-6.1035156e-5,-10.629921)"
       id="path4324-9" />
    <path
       style="opacity:1;fill:#ffd42a;fill-opacity:1;stroke:none;stroke-width:4;stroke-linecap:butt;stroke-linejoin:miter;stroke-miterlimit:4;stroke-dasharray:none;stroke-dashoffset:0;stroke-opacity:1"
       d="M 925.08594 -554.25781 L 925.08594 -526.10938 L 910.91406 -526.10938 L 910.91406 -554.10156 A 159.44882 159.44882 0 0 0 810.50195 -512.52734 L 830.30664 -492.72266 L 820.28516 -482.70117 L 800.52148 -502.46484 A 159.44882 159.44882 0 0 0 786.89844 -485.07617 L 786.89844 -402.09375 L 786.89844 -387.92188 L 758.91602 -387.92188 A 159.44882 159.44882 0 0 0 800.4707 -287.5 L 820.28516 -307.31641 L 830.30859 -297.29297 L 810.51172 -277.49805 A 159.44882 159.44882 0 0 0 910.91406 -235.75977 L 910.91406 -263.90625 L 925.08594 -263.90625 L 925.08594 -235.91406 A 159.44882 159.44882 0 0 0 1025.498 -277.48828 L 1005.6914 -297.29297 L 1015.7148 -307.31641 L 1035.4785 -287.55078 A 159.44882 159.44882 0 0 0 1077.2441 -387.92188 L 1049.1016 -387.92188 L 1049.1016 -402.09375 L 1049.1016 -485.69336 A 159.44882 159.44882 0 0 0 1035.4922 -502.47852 L 1015.7148 -482.70117 L 1005.6914 -492.72266 L 1025.498 -512.52734 A 159.44882 159.44882 0 0 0 925.08594 -554.25781 z M 896.74023 -479.60352 L 939.25977 -479.60352 L 939.25977 -444.17188 L 896.74023 -444.17188 L 896.74023 -479.60352 z M 910.91406 -430.44141 L 925.08594 -430.44141 L 925.08594 -402.09375 L 910.91406 -402.09375 L 910.91406 -430.44141 z "
       transform="translate(-6.1035156e-5,-10.629921)"
       id="path4324-9-2" />
    <path
       style="fill:#ffcc00;fill-opacity:1;stroke:none;stroke-width:8.61401749;stroke-miterlimit:4;stroke-dasharray:none;stroke-opacity:1"
       d="M 1081.6348 -753.1582 L 1081.6348 -646.85742 L 1095.8086 -646.85742 L 1095.8086 -661.03125 L 1109.9805 -661.03125 L 1109.9805 -701.41016 L 1109.9805 -712.41016 L 1156.9297 -712.41016 L 1156.9297 -701.41016 L 1173.7617 -701.41016 L 1173.7617 -712.41016 L 1220.709 -712.41016 L 1220.709 -701.41016 L 1235.3262 -701.41016 L 1235.3262 -724.81055 L 1292.0195 -724.81055 L 1292.0195 -701.41016 L 1292.0195 -661.03125 L 1306.1914 -661.03125 L 1306.1914 -646.85742 L 1320.3652 -646.85742 L 1320.3652 -753.1582 L 1081.6348 -753.1582 z "
       transform="translate(-6.1035156e-5,-10.629921)"
       id="rect1833-0" />
  </g>
</svg>
